<svg width="35" height="35" viewBox="0 0 35 35" fill="none" xmlns="http://www.w3.org/2000/svg">
<rect width="35" height="35" rx="17.5" fill="#063247"/>
<path d="M13.4817 14.9294C13.3027 13.75 14.1342 12.6906 15.4045 12.3025C15.63 12.2336 15.8732 12.2532 16.0847 12.3574C16.2961 12.4615 16.4599 12.6424 16.5427 12.8631L16.9505 13.9506C17.0161 14.1256 17.028 14.3161 16.9846 14.4979C16.9411 14.6796 16.8444 14.8443 16.7067 14.9706L15.4936 16.0816C15.4338 16.1364 15.3893 16.2059 15.3643 16.2831C15.3393 16.3603 15.3348 16.4427 15.3511 16.5222L15.3624 16.5709L15.3914 16.6928C15.5423 17.285 15.7722 17.8541 16.0749 18.385C16.4046 18.9491 16.8138 19.4628 17.2899 19.9103L17.3274 19.9441C17.3879 19.9978 17.4614 20.035 17.5406 20.0519C17.6198 20.0688 17.702 20.0649 17.7792 20.0406L19.3477 19.5466C19.5259 19.4906 19.7168 19.4892 19.8959 19.5424C20.075 19.5957 20.234 19.7013 20.3527 19.8456L21.0952 20.7466C21.4045 21.1216 21.367 21.6728 21.0117 22.0037C20.0395 22.9103 18.7027 23.0959 17.7727 22.3487C16.6327 21.4292 15.6717 20.3077 14.9377 19.0403C14.1977 17.7739 13.7034 16.3791 13.4808 14.9294H13.4817ZM16.3345 16.5841L17.3395 15.6616C17.615 15.4089 17.8087 15.0797 17.8957 14.7163C17.9828 14.3528 17.9592 13.9715 17.828 13.6216L17.4211 12.5341C17.2546 12.0899 16.9249 11.726 16.4994 11.5164C16.0738 11.3069 15.5844 11.2675 15.1308 11.4062C13.553 11.8891 12.2864 13.3037 12.5545 15.0709C12.742 16.3047 13.1742 17.8741 14.1277 19.5128C14.9196 20.8794 15.9562 22.0886 17.1858 23.08C18.5808 24.2003 20.4427 23.8178 21.652 22.6909C21.9981 22.3687 22.2081 21.9266 22.2393 21.4548C22.2705 20.983 22.1205 20.5171 21.8199 20.1522L21.0774 19.2503C20.8398 18.962 20.5216 18.7512 20.1635 18.645C19.8054 18.5388 19.4237 18.5419 19.0674 18.6541L17.7652 19.0637C17.429 18.7171 17.1345 18.3323 16.8877 17.9172C16.6493 17.4975 16.4635 17.0501 16.3345 16.585V16.5841Z" fill="white"/>
</svg>
