<svg width="24" height="25" viewBox="0 0 24 25" fill="none" xmlns="http://www.w3.org/2000/svg">
<path d="M19.2929 20.7193C19.6834 21.1098 20.3166 21.1098 20.7071 20.7193C21.0976 20.3288 21.0976 19.6956 20.7071 19.3051L19.2929 20.7193ZM4.70711 3.3051C4.31658 2.91458 3.68342 2.91458 3.29289 3.3051C2.90237 3.69562 2.90237 4.32879 3.29289 4.71931L4.70711 3.3051ZM20.7071 4.71931C21.0976 4.32879 21.0976 3.69562 20.7071 3.3051C20.3166 2.91458 19.6834 2.91458 19.2929 3.3051L20.7071 4.71931ZM3.29289 19.3051C2.90237 19.6956 2.90237 20.3288 3.29289 20.7193C3.68342 21.1098 4.31658 21.1098 4.70711 20.7193L3.29289 19.3051ZM20.7071 19.3051L4.70711 3.3051L3.29289 4.71931L19.2929 20.7193L20.7071 19.3051ZM19.2929 3.3051L3.29289 19.3051L4.70711 20.7193L20.7071 4.71931L19.2929 3.3051Z" fill="white"/>
</svg>
