<svg width="27" height="27" viewBox="0 0 27 27" fill="none" xmlns="http://www.w3.org/2000/svg">
<path d="M22.427 3.34375H3.7395C3.29009 3.34375 2.927 3.70684 2.927 4.15625V22.8438C2.927 23.2932 3.29009 23.6562 3.7395 23.6562H22.427C22.8764 23.6562 23.2395 23.2932 23.2395 22.8438V4.15625C23.2395 3.70684 22.8764 3.34375 22.427 3.34375ZM21.6145 22.0312H16.9401V15.7902H19.5807L19.9768 12.7256H16.9401V10.768C16.9401 9.8793 17.1864 9.275 18.4584 9.275H20.0809V6.53281C19.7991 6.49473 18.8368 6.41094 17.7145 6.41094C15.3735 6.41094 13.7713 7.84043 13.7713 10.4633V12.723H11.1256V15.7877H13.7739V22.0312H4.552V4.96875H21.6145V22.0312Z" fill="white"/>
</svg>
