<svg width="96" height="74" viewBox="0 0 96 74" fill="none" xmlns="http://www.w3.org/2000/svg">
<path d="M21.9813 56.1312V24.1048C21.9813 24.0463 22.0333 23.9988 22.0973 23.9988H29.8061C29.8402 23.9988 29.8727 23.9851 29.8948 23.9612L37.6964 15.5376C37.7664 15.462 37.901 15.5071 37.901 15.6063V48.6788C37.901 48.7373 37.8491 48.7848 37.7851 48.7848H32.6563C32.5924 48.7848 32.5404 48.7373 32.5404 48.6788V31.1104C32.5404 31.0725 32.5624 31.0373 32.5987 31.0185L40.6858 26.7754C40.7217 26.7566 40.7441 26.7214 40.7441 26.6834V13.3796C40.7441 13.3386 40.7699 13.3013 40.8103 13.2839L56.0922 6.63201C56.1693 6.59852 56.2583 6.64978 56.2583 6.72771V56.0252C56.2583 56.0837 56.2063 56.1312 56.1424 56.1312H47.0337C46.9697 56.1312 46.9177 56.0837 46.9177 56.0252V19.578C46.9177 19.5195 46.9697 19.472 47.0337 19.472H63.8127C78.3827 19.472 79.6654 35.9366 70.0308 36.9376C69.9006 36.9513 69.8898 37.1198 70.0177 37.1461C83.5376 39.9363 81.2037 59.325 59.6704 56.1308" stroke="url(#paint0_linear_241_3073)" stroke-width="1.80651" stroke-miterlimit="10"/>
<path d="M4.55173 67.112C4.86106 67.192 5.08773 67.3467 5.23173 67.576C5.38106 67.8053 5.45573 68.0747 5.45573 68.384C5.45573 68.8587 5.29039 69.248 4.95973 69.552C4.62906 69.8507 4.18106 70 3.61573 70H1.23173V64.624H3.15173C3.79706 64.624 4.29839 64.7387 4.65573 64.968C5.01839 65.1973 5.19973 65.552 5.19973 66.032C5.19973 66.288 5.13839 66.512 5.01573 66.704C4.89839 66.8907 4.74373 67.0267 4.55173 67.112ZM2.25573 65.648V66.672H3.21573C3.85573 66.672 4.17573 66.5013 4.17573 66.16C4.17573 65.9627 4.09839 65.8293 3.94373 65.76C3.78906 65.6853 3.54639 65.648 3.21573 65.648H2.25573ZM3.34373 68.976C4.06906 68.976 4.43173 68.7413 4.43173 68.272C4.43173 68.0373 4.33573 67.8613 4.14373 67.744C3.95173 67.6267 3.68506 67.568 3.34373 67.568H2.25573V68.976H3.34373ZM9.88941 64.624H10.9134V70H9.88941V67.824H7.58541V70H6.56141V64.624H7.58541V66.8H9.88941V64.624ZM16.0484 70L15.6484 68.976H13.3764L12.9764 70H11.8244L14.0484 64.624H14.9764L17.2004 70H16.0484ZM13.7684 67.952H15.2564L14.5124 66.032L13.7684 67.952ZM21.3748 64.624L22.3988 68.208L23.6788 64.624H24.8308L22.9108 70H21.8868L20.9268 66.672L19.9668 70H18.9428L17.0228 64.624H18.1748L19.4548 68.208L20.4788 64.624H21.3748ZM28.8797 70L28.4797 68.976H26.2077L25.8077 70H24.6557L26.8797 64.624H27.8077L30.0317 70H28.8797ZM26.5997 67.952H28.0877L27.3437 66.032L26.5997 67.952ZM34.6547 64.624H35.6787V70H34.6547L31.9667 66.288V70H30.9427V64.624H31.9667L34.6547 68.336V64.624ZM38.1245 70H37.1005V64.624H38.1245V70ZM44.161 64.624C45.0517 64.624 45.745 64.8773 46.241 65.384C46.737 65.8907 46.985 66.5333 46.985 67.312C46.985 68.0853 46.7317 68.728 46.225 69.24C45.7237 69.7467 45.0357 70 44.161 70H42.377V64.624H44.161ZM44.345 68.976C44.8197 68.976 45.2064 68.816 45.505 68.496C45.809 68.176 45.961 67.7813 45.961 67.312C45.961 66.8427 45.809 66.448 45.505 66.128C45.2064 65.808 44.8197 65.648 44.345 65.648H43.401V68.976H44.345ZM51.4175 65.648H49.1135V66.8H51.0335V67.824H49.1135V68.976H51.4175V70H48.0895V64.624H51.4175V65.648ZM55.2776 69.104C55.8109 69.104 56.2563 68.92 56.6136 68.552L57.0056 69.48C56.7816 69.6827 56.5123 69.8427 56.1976 69.96C55.8829 70.072 55.5709 70.128 55.2616 70.128C54.4723 70.128 53.7976 69.8533 53.2376 69.304C52.6776 68.7493 52.3976 68.0853 52.3976 67.312C52.3976 66.5387 52.6776 65.8773 53.2376 65.328C53.7976 64.7733 54.4723 64.496 55.2616 64.496C55.5709 64.496 55.8829 64.552 56.1976 64.664C56.5123 64.776 56.7816 64.9333 57.0056 65.136L56.6136 66.064C56.2403 65.7013 55.7949 65.52 55.2776 65.52C54.7656 65.52 54.3283 65.696 53.9656 66.048C53.6029 66.3947 53.4216 66.816 53.4216 67.312C53.4216 67.808 53.6029 68.232 53.9656 68.584C54.3283 68.9307 54.7656 69.104 55.2776 69.104ZM58.6763 65.32C59.2256 64.7707 59.8896 64.496 60.6683 64.496C61.447 64.496 62.111 64.7707 62.6603 65.32C63.2096 65.8693 63.4843 66.5333 63.4843 67.312C63.4843 68.0907 63.2096 68.7547 62.6603 69.304C62.111 69.8533 61.447 70.128 60.6683 70.128C59.8896 70.128 59.2256 69.8533 58.6763 69.304C58.127 68.7547 57.8523 68.0907 57.8523 67.312C57.8523 66.5333 58.127 65.8693 58.6763 65.32ZM59.3963 68.584C59.7483 68.9307 60.1723 69.104 60.6683 69.104C61.1643 69.104 61.5856 68.9307 61.9323 68.584C62.2843 68.232 62.4603 67.808 62.4603 67.312C62.4603 66.816 62.2843 66.3947 61.9323 66.048C61.5856 65.696 61.1643 65.52 60.6683 65.52C60.1723 65.52 59.7483 65.696 59.3963 66.048C59.0496 66.3947 58.8763 66.816 58.8763 67.312C58.8763 67.808 59.0496 68.232 59.3963 68.584ZM68.6824 70H67.4344L66.2264 68.208H65.6104V70H64.5864V64.624H66.5064C67.1837 64.624 67.6931 64.7867 68.0344 65.112C68.3811 65.4373 68.5544 65.872 68.5544 66.416C68.5544 66.8053 68.4451 67.16 68.2264 67.48C68.0077 67.7947 67.7064 68.0107 67.3224 68.128L68.6824 70ZM65.6104 65.648V67.184H66.6344C66.8851 67.184 67.0957 67.112 67.2664 66.968C67.4424 66.824 67.5304 66.64 67.5304 66.416C67.5304 66.1707 67.4451 65.9813 67.2744 65.848C67.1091 65.7147 66.8957 65.648 66.6344 65.648H65.6104ZM73.5656 70L73.1656 68.976H70.8936L70.4936 70H69.3416L71.5656 64.624H72.4936L74.7176 70H73.5656ZM71.2856 67.952H72.7736L72.0296 66.032L71.2856 67.952ZM74.732 64.624H78.572V65.648H77.164V70H76.14V65.648H74.732V64.624ZM80.0497 65.32C80.5991 64.7707 81.2631 64.496 82.0417 64.496C82.8204 64.496 83.4844 64.7707 84.0337 65.32C84.5831 65.8693 84.8577 66.5333 84.8577 67.312C84.8577 68.0907 84.5831 68.7547 84.0337 69.304C83.4844 69.8533 82.8204 70.128 82.0417 70.128C81.2631 70.128 80.5991 69.8533 80.0497 69.304C79.5004 68.7547 79.2257 68.0907 79.2257 67.312C79.2257 66.5333 79.5004 65.8693 80.0497 65.32ZM80.7697 68.584C81.1217 68.9307 81.5457 69.104 82.0417 69.104C82.5377 69.104 82.9591 68.9307 83.3057 68.584C83.6577 68.232 83.8337 67.808 83.8337 67.312C83.8337 66.816 83.6577 66.3947 83.3057 66.048C82.9591 65.696 82.5377 65.52 82.0417 65.52C81.5457 65.52 81.1217 65.696 80.7697 66.048C80.4231 66.3947 80.2497 66.816 80.2497 67.312C80.2497 67.808 80.4231 68.232 80.7697 68.584ZM90.0559 70H88.8079L87.5999 68.208H86.9839V70H85.9599V64.624H87.8799C88.5572 64.624 89.0665 64.7867 89.4079 65.112C89.7545 65.4373 89.9279 65.872 89.9279 66.416C89.9279 66.8053 89.8185 67.16 89.5999 67.48C89.3812 67.7947 89.0799 68.0107 88.6959 68.128L90.0559 70ZM86.9839 65.648V67.184H88.0079C88.2585 67.184 88.4692 67.112 88.6399 66.968C88.8159 66.824 88.9039 66.64 88.9039 66.416C88.9039 66.1707 88.8185 65.9813 88.6479 65.848C88.4825 65.7147 88.2692 65.648 88.0079 65.648H86.9839ZM93.15 66.736C93.4754 66.7893 93.75 66.8507 93.974 66.92C94.198 66.9893 94.4087 67.0853 94.606 67.208C94.8034 67.3253 94.95 67.4853 95.046 67.688C95.1474 67.8853 95.198 68.1227 95.198 68.4C95.198 68.9013 95.0087 69.3147 94.63 69.64C94.2567 69.9653 93.726 70.128 93.038 70.128C92.174 70.128 91.4434 69.8293 90.846 69.232L91.358 68.336C91.5767 68.5867 91.8434 68.7787 92.158 68.912C92.4727 69.04 92.7714 69.104 93.054 69.104C93.406 69.104 93.6807 69.0453 93.878 68.928C94.0754 68.8107 94.174 68.656 94.174 68.464C94.174 68.1227 93.8114 67.8987 93.086 67.792C92.35 67.68 91.8247 67.4907 91.51 67.224C91.1954 66.952 91.038 66.6027 91.038 66.176C91.038 65.7067 91.222 65.3093 91.59 64.984C91.958 64.6587 92.462 64.496 93.102 64.496C93.7954 64.496 94.4087 64.7147 94.942 65.152L94.51 66.032C94.1154 65.6907 93.6407 65.52 93.086 65.52C92.7874 65.52 92.542 65.568 92.35 65.664C92.158 65.7547 92.062 65.9013 92.062 66.104C92.062 66.28 92.142 66.4133 92.302 66.504C92.462 66.5947 92.7447 66.672 93.15 66.736Z" fill="#063247"/>
<defs>
<linearGradient id="paint0_linear_241_3073" x1="21.2892" y1="31.5533" x2="79.1134" y2="31.5533" gradientUnits="userSpaceOnUse">
<stop stop-color="#F99D00"/>
<stop offset="0.0631" stop-color="#FAA900"/>
<stop offset="0.1775" stop-color="#FDCA00"/>
<stop offset="0.2542" stop-color="#FFE300"/>
<stop offset="0.3009" stop-color="#F4B102"/>
<stop offset="0.3933" stop-color="#E05206"/>
<stop offset="0.458" stop-color="#D31709"/>
<stop offset="0.4888" stop-color="#CE000A"/>
<stop offset="0.4976" stop-color="#BD0F1D"/>
<stop offset="0.5221" stop-color="#91344E"/>
<stop offset="0.548" stop-color="#6A5479"/>
<stop offset="0.5747" stop-color="#49709E"/>
<stop offset="0.6026" stop-color="#2F87BB"/>
<stop offset="0.632" stop-color="#1A98D2"/>
<stop offset="0.6636" stop-color="#0BA4E2"/>
<stop offset="0.699" stop-color="#03ACEC"/>
<stop offset="0.7458" stop-color="#00AEEF"/>
<stop offset="0.8134" stop-color="#008AD7"/>
<stop offset="0.8937" stop-color="#0065BF"/>
<stop offset="0.9587" stop-color="#004EB0"/>
<stop offset="1" stop-color="#0046AB"/>
</linearGradient>
</defs>
</svg>
