<svg width="149" height="111" viewBox="0 0 149 111" fill="none" xmlns="http://www.w3.org/2000/svg">
<g clip-path="url(#clip0_438_784)">
<path d="M33.667 88.8756V38.2443C33.667 38.1519 33.7421 38.0768 33.8345 38.0768H44.9688C45.0179 38.0768 45.0649 38.0552 45.0968 38.0174L56.3651 24.7003C56.4661 24.5809 56.6606 24.6522 56.6606 24.8089V77.0941C56.6606 77.1865 56.5855 77.2616 56.4931 77.2616H49.0854C48.993 77.2616 48.9179 77.1865 48.9179 77.0941V49.3197C48.9179 49.2597 48.9498 49.2041 49.0022 49.1744L60.6827 42.4664C60.7346 42.4366 60.767 42.381 60.767 42.321V21.2887C60.767 21.2239 60.8043 21.165 60.8627 21.1374L82.9351 10.6213C83.0464 10.5683 83.175 10.6494 83.175 10.7726V88.7081C83.175 88.8005 83.0999 88.8756 83.0075 88.8756H69.8514C69.759 88.8756 69.6838 88.8005 69.6838 88.7081V31.0879C69.6838 30.9955 69.759 30.9204 69.8514 30.9204H94.0861C115.13 30.9204 116.983 56.9495 103.067 58.5321C102.879 58.5537 102.864 58.8201 103.048 58.8617C122.576 63.2728 119.205 93.9249 88.1032 88.8751" stroke="url(#paint0_linear_438_784)" stroke-width="1.99917" stroke-miterlimit="10"/>
<path d="M11.5957 101.61C12.0783 101.735 12.432 101.976 12.6566 102.334C12.8896 102.692 13.0061 103.112 13.0061 103.595C13.0061 104.335 12.7482 104.943 12.2323 105.417C11.7164 105.883 11.0174 106.116 10.1354 106.116H6.41599V97.7284H9.4115C10.4183 97.7284 11.2005 97.9073 11.758 98.2651C12.3238 98.6229 12.6067 99.1763 12.6067 99.9251C12.6067 100.325 12.511 100.674 12.3196 100.974C12.1366 101.265 11.8953 101.477 11.5957 101.61ZM8.01359 99.326V100.924H9.51135C10.5098 100.924 11.0091 100.657 11.0091 100.125C11.0091 99.817 10.8884 99.6089 10.6471 99.5008C10.4058 99.3843 10.0272 99.326 9.51135 99.326H8.01359ZM9.71105 104.518C10.8427 104.518 11.4085 104.152 11.4085 103.42C11.4085 103.054 11.2587 102.779 10.9592 102.596C10.6596 102.413 10.2436 102.322 9.71105 102.322H8.01359V104.518H9.71105ZM19.2993 97.7284H20.8969V106.116H19.2993V102.721H15.7047V106.116H14.1071V97.7284H15.7047V101.123H19.2993V97.7284ZM28.2843 106.116L27.6602 104.518H24.1155L23.4914 106.116H21.6941L25.1639 97.7284H26.6118L30.0816 106.116H28.2843ZM24.7271 102.921H27.0486L25.8879 99.9251L24.7271 102.921ZM35.9702 97.7284L37.5678 103.32L39.5648 97.7284H41.3621L38.3666 106.116H36.769L35.2712 100.924L33.7735 106.116H32.1759L29.1804 97.7284H30.9777L32.9747 103.32L34.5723 97.7284H35.9702ZM47.0549 106.116L46.4309 104.518H42.8862L42.2621 106.116H40.4648L43.9346 97.7284H45.3824L48.8522 106.116H47.0549ZM43.4978 102.921H45.8193L44.6585 99.9251L43.4978 102.921ZM55.4408 97.7284H57.0384V106.116H55.4408L51.2471 100.325V106.116H49.6495V97.7284H51.2471L55.4408 103.52V97.7284ZM60.2302 106.116H58.6326V97.7284H60.2302V106.116ZM68.4001 97.7284C69.7896 97.7284 70.8714 98.1237 71.6452 98.9141C72.419 99.7046 72.8059 100.707 72.8059 101.922C72.8059 103.129 72.4107 104.131 71.6202 104.93C70.8381 105.721 69.7647 106.116 68.4001 106.116H65.6167V97.7284H68.4001ZM68.6871 104.518C69.4277 104.518 70.0309 104.269 70.4969 103.769C70.9712 103.27 71.2083 102.654 71.2083 101.922C71.2083 101.19 70.9712 100.574 70.4969 100.075C70.0309 99.5757 69.4277 99.326 68.6871 99.326H67.2143V104.518H68.6871ZM79.0973 99.326H75.5027V101.123H78.4982V102.721H75.5027V104.518H79.0973V106.116H73.9051V97.7284H79.0973V99.326ZM84.4955 104.718C85.3276 104.718 86.0224 104.431 86.5799 103.857L87.1915 105.305C86.842 105.621 86.4218 105.87 85.9309 106.053C85.44 106.228 84.9532 106.316 84.4706 106.316C83.2391 106.316 82.1865 105.887 81.3128 105.03C80.4391 104.165 80.0023 103.129 80.0023 101.922C80.0023 100.716 80.4391 99.6838 81.3128 98.8268C82.1865 97.9614 83.2391 97.5287 84.4706 97.5287C84.9532 97.5287 85.44 97.6161 85.9309 97.7908C86.4218 97.9656 86.842 98.211 87.1915 98.5272L86.5799 99.9751C85.9975 99.4092 85.3027 99.1263 84.4955 99.1263C83.6967 99.1263 83.0144 99.4009 82.4486 99.9501C81.8828 100.491 81.5999 101.148 81.5999 101.922C81.5999 102.696 81.8828 103.357 82.4486 103.907C83.0144 104.448 83.6967 104.718 84.4955 104.718ZM89.174 98.8143C90.031 97.9572 91.067 97.5287 92.2818 97.5287C93.4967 97.5287 94.5326 97.9572 95.3896 98.8143C96.2467 99.6713 96.6752 100.707 96.6752 101.922C96.6752 103.137 96.2467 104.173 95.3896 105.03C94.5326 105.887 93.4967 106.316 92.2818 106.316C91.067 106.316 90.031 105.887 89.174 105.03C88.3169 104.173 87.8884 103.137 87.8884 101.922C87.8884 100.707 88.3169 99.6713 89.174 98.8143ZM90.2973 103.907C90.8465 104.448 91.508 104.718 92.2818 104.718C93.0556 104.718 93.713 104.448 94.2539 103.907C94.803 103.357 95.0776 102.696 95.0776 101.922C95.0776 101.148 94.803 100.491 94.2539 99.9501C93.713 99.4009 93.0556 99.1263 92.2818 99.1263C91.508 99.1263 90.8465 99.4009 90.2973 99.9501C89.7564 100.491 89.486 101.148 89.486 101.922C89.486 102.696 89.7564 103.357 90.2973 103.907ZM104.161 106.116H102.214L100.329 103.32H99.3683V106.116H97.7706V97.7284H100.766C101.823 97.7284 102.618 97.9822 103.15 98.4898C103.691 98.9974 103.961 99.6755 103.961 100.524C103.961 101.132 103.791 101.685 103.45 102.184C103.108 102.675 102.638 103.012 102.039 103.195L104.161 106.116ZM99.3683 99.326V101.722H100.966C101.357 101.722 101.686 101.61 101.952 101.385C102.226 101.161 102.364 100.874 102.364 100.524C102.364 100.141 102.231 99.8461 101.964 99.6381C101.706 99.43 101.374 99.326 100.966 99.326H99.3683ZM111.156 106.116L110.531 104.518H106.987L106.363 106.116H104.565L108.035 97.7284H109.483L112.953 106.116H111.156ZM107.598 102.921H109.92L108.759 99.9251L107.598 102.921ZM112.351 97.7284H118.342V99.326H116.146V106.116H114.548V99.326H112.351V97.7284ZM120.024 98.8143C120.881 97.9572 121.917 97.5287 123.132 97.5287C124.346 97.5287 125.382 97.9572 126.239 98.8143C127.096 99.6713 127.525 100.707 127.525 101.922C127.525 103.137 127.096 104.173 126.239 105.03C125.382 105.887 124.346 106.316 123.132 106.316C121.917 106.316 120.881 105.887 120.024 105.03C119.167 104.173 118.738 103.137 118.738 101.922C118.738 100.707 119.167 99.6713 120.024 98.8143ZM121.147 103.907C121.696 104.448 122.358 104.718 123.132 104.718C123.905 104.718 124.563 104.448 125.104 103.907C125.653 103.357 125.927 102.696 125.927 101.922C125.927 101.148 125.653 100.491 125.104 99.9501C124.563 99.4009 123.905 99.1263 123.132 99.1263C122.358 99.1263 121.696 99.4009 121.147 99.9501C120.606 100.491 120.336 101.148 120.336 101.922C120.336 102.696 120.606 103.357 121.147 103.907ZM135.011 106.116H133.064L131.179 103.32H130.218V106.116H128.62V97.7284H131.616C132.673 97.7284 133.467 97.9822 134 98.4898C134.541 98.9974 134.811 99.6755 134.811 100.524C134.811 101.132 134.641 101.685 134.299 102.184C133.958 102.675 133.488 103.012 132.889 103.195L135.011 106.116ZM130.218 99.326V101.722H131.816C132.207 101.722 132.535 101.61 132.802 101.385C133.076 101.161 133.213 100.874 133.213 100.524C133.213 100.141 133.08 99.8461 132.814 99.6381C132.556 99.43 132.223 99.326 131.816 99.326H130.218ZM139.214 101.023C139.722 101.107 140.15 101.202 140.5 101.311C140.849 101.419 141.178 101.568 141.486 101.76C141.794 101.943 142.022 102.193 142.172 102.509C142.33 102.817 142.409 103.187 142.409 103.62C142.409 104.402 142.114 105.047 141.523 105.554C140.941 106.062 140.113 106.316 139.039 106.316C137.691 106.316 136.551 105.85 135.62 104.918L136.418 103.52C136.759 103.911 137.176 104.21 137.666 104.418C138.157 104.618 138.623 104.718 139.064 104.718C139.614 104.718 140.042 104.626 140.35 104.443C140.658 104.26 140.812 104.019 140.812 103.719C140.812 103.187 140.246 102.837 139.114 102.671C137.966 102.496 137.146 102.201 136.655 101.785C136.165 101.36 135.919 100.815 135.919 100.15C135.919 99.4176 136.206 98.7977 136.78 98.2901C137.354 97.7825 138.141 97.5287 139.139 97.5287C140.221 97.5287 141.178 97.8699 142.01 98.5522L141.336 99.9251C140.72 99.3926 139.98 99.1263 139.114 99.1263C138.648 99.1263 138.266 99.2012 137.966 99.351C137.666 99.4924 137.517 99.7213 137.517 100.037C137.517 100.312 137.642 100.52 137.891 100.662C138.141 100.803 138.582 100.924 139.214 101.023Z" fill="white"/>
</g>
<defs>
<linearGradient id="paint0_linear_438_784" x1="32.6673" y1="50.02" x2="116.186" y2="50.02" gradientUnits="userSpaceOnUse">
<stop stop-color="#F99D00"/>
<stop offset="0.0631" stop-color="#FAA900"/>
<stop offset="0.1775" stop-color="#FDCA00"/>
<stop offset="0.2542" stop-color="#FFE300"/>
<stop offset="0.3009" stop-color="#F4B102"/>
<stop offset="0.3933" stop-color="#E05206"/>
<stop offset="0.458" stop-color="#D31709"/>
<stop offset="0.4888" stop-color="#CE000A"/>
<stop offset="0.4976" stop-color="#BD0F1D"/>
<stop offset="0.5221" stop-color="#91344E"/>
<stop offset="0.548" stop-color="#6A5479"/>
<stop offset="0.5747" stop-color="#49709E"/>
<stop offset="0.6026" stop-color="#2F87BB"/>
<stop offset="0.632" stop-color="#1A98D2"/>
<stop offset="0.6636" stop-color="#0BA4E2"/>
<stop offset="0.699" stop-color="#03ACEC"/>
<stop offset="0.7458" stop-color="#00AEEF"/>
<stop offset="0.8134" stop-color="#008AD7"/>
<stop offset="0.8937" stop-color="#0065BF"/>
<stop offset="0.9587" stop-color="#004EB0"/>
<stop offset="1" stop-color="#0046AB"/>
</linearGradient>
<clipPath id="clip0_438_784">
<rect width="148.852" height="110.469" fill="white"/>
</clipPath>
</defs>
</svg>
