<svg width="35" height="35" viewBox="0 0 35 35" fill="none" xmlns="http://www.w3.org/2000/svg">
<rect width="35" height="35" rx="17.5" fill="#063247"/>
<path d="M21.625 13C22.1223 13 22.5992 13.1975 22.9508 13.5492C23.3025 13.9008 23.5 14.3777 23.5 14.875V20.875C23.5 21.3723 23.3025 21.8492 22.9508 22.2008C22.5992 22.5525 22.1223 22.75 21.625 22.75H13.375C12.8777 22.75 12.4008 22.5525 12.0492 22.2008C11.6975 21.8492 11.5 21.3723 11.5 20.875V14.875C11.5 14.3777 11.6975 13.9008 12.0492 13.5492C12.4008 13.1975 12.8777 13 13.375 13H21.625ZM22.75 15.9707L17.6905 18.9482C17.6427 18.9763 17.5892 18.9935 17.534 18.9984C17.4787 19.0033 17.423 18.9959 17.371 18.9767L17.3095 18.9482L12.25 15.9722V20.875C12.25 21.1734 12.3685 21.4595 12.5795 21.6705C12.7905 21.8815 13.0766 22 13.375 22H21.625C21.9234 22 22.2095 21.8815 22.4205 21.6705C22.6315 21.4595 22.75 21.1734 22.75 20.875V15.9707ZM21.625 13.75H13.375C13.0766 13.75 12.7905 13.8685 12.5795 14.0795C12.3685 14.2905 12.25 14.5766 12.25 14.875V15.1015L17.5 18.19L22.75 15.1V14.875C22.75 14.5766 22.6315 14.2905 22.4205 14.0795C22.2095 13.8685 21.9234 13.75 21.625 13.75V13.75Z" fill="white"/>
</svg>
