<svg width="30" height="31" viewBox="0 0 30 31" fill="none" xmlns="http://www.w3.org/2000/svg">
<path d="M22.4996 28.9443C22.241 28.9436 21.9833 28.9153 21.7307 28.8598C16.9228 27.8652 12.4935 25.5332 8.95246 22.1323C5.48699 18.7239 3.08351 14.3843 2.03281 9.63851C1.90891 9.04704 1.93932 8.43364 2.1211 7.85733C2.30289 7.28101 2.62992 6.76117 3.07075 6.34783L6.14615 3.38776C6.30323 3.23921 6.48988 3.12545 6.6939 3.05391C6.89792 2.98237 7.11473 2.95466 7.33018 2.97258C7.55358 2.99588 7.76917 3.06785 7.96177 3.18341C8.15437 3.29897 8.31932 3.45533 8.44502 3.64148L12.2893 9.32328C12.4334 9.54374 12.503 9.80466 12.4878 10.0676C12.4726 10.3306 12.3733 10.5817 12.2047 10.7841L10.2749 13.0906C11.0435 14.7917 12.1319 16.3291 13.481 17.6192C14.8213 18.956 16.4056 20.0235 18.1479 20.7638L20.539 18.8647C20.7399 18.706 20.9842 18.6122 21.2397 18.5957C21.4951 18.5792 21.7495 18.6409 21.9691 18.7724L27.7739 22.5244C27.9731 22.6434 28.1428 22.8059 28.2703 22.9997C28.3978 23.1935 28.4798 23.4137 28.5101 23.6437C28.5404 23.8737 28.5183 24.1076 28.4454 24.3279C28.3725 24.5482 28.2507 24.7491 28.0891 24.9156L25.0906 27.8833C24.75 28.2223 24.3457 28.4905 23.9011 28.6726C23.4564 28.8547 22.9801 28.947 22.4996 28.9443ZM7.20717 4.4949L4.13177 7.45497C3.88377 7.68605 3.7002 7.9777 3.5991 8.30123C3.49799 8.62477 3.48284 8.96905 3.55513 9.30022C4.53212 13.7535 6.77793 17.8285 10.0212 21.0329C13.3535 24.2325 17.5218 26.4259 22.046 27.3605C22.3884 27.4321 22.7433 27.4176 23.0787 27.3183C23.4142 27.219 23.7198 27.038 23.9681 26.7916L26.9666 23.8238L21.3617 20.2025L18.7937 22.2477C18.6954 22.3255 18.5796 22.378 18.4563 22.4008C18.333 22.4236 18.206 22.4159 18.0864 22.3784C15.9541 21.5927 14.0218 20.3457 12.4277 18.7263C10.7787 17.1865 9.49882 15.2942 8.68336 13.1906C8.64886 13.0632 8.64771 12.9292 8.68003 12.8012C8.71235 12.6733 8.77704 12.5559 8.86788 12.4602L10.9438 9.9768L7.20717 4.4949Z" fill="white"/>
</svg>
