<svg width="362" height="70" viewBox="0 0 362 70" fill="none" xmlns="http://www.w3.org/2000/svg">
<path d="M13.8352 7.5778H16.7047C17.968 7.5778 19.0327 7.7673 19.899 8.14629C20.7833 8.52528 21.4511 9.05767 21.9022 9.74346C22.3534 10.4112 22.579 11.1963 22.579 12.0986C22.579 12.8566 22.4346 13.5243 22.1459 14.1018C21.8571 14.6613 21.4872 15.1215 21.036 15.4824C20.5848 15.8253 20.1065 16.069 19.6012 16.2134C20.5577 16.3577 21.3789 16.6736 22.0647 17.1608C22.7685 17.6481 23.3009 18.2617 23.6618 19.0016C24.0408 19.7235 24.2303 20.5356 24.2303 21.438C24.2303 22.4486 23.9867 23.342 23.4994 24.118C23.0121 24.876 22.2903 25.4715 21.3338 25.9047C20.3953 26.3197 19.2583 26.5273 17.9228 26.5273H14.918C14.918 26.5273 14.918 26.4461 14.918 26.2836C14.936 26.1212 14.9451 25.9588 14.9451 25.7964C14.9451 25.634 14.9451 25.5527 14.9451 25.5527H17.8146C18.753 25.5527 19.5471 25.3903 20.1968 25.0655C20.8465 24.7226 21.3428 24.2263 21.6857 23.5766C22.0286 22.9269 22.2 22.1509 22.2 21.2485C22.2 20.2379 22.0015 19.4167 21.6045 18.7851C21.2255 18.1534 20.7292 17.6752 20.1156 17.3503C19.502 17.0255 18.8342 16.8089 18.1123 16.7006C17.4085 16.5743 16.7317 16.5111 16.082 16.5111V16.2675C16.4971 16.2675 16.9573 16.2224 17.4626 16.1321C17.968 16.0419 18.4552 15.8614 18.9245 15.5907C19.3937 15.32 19.7817 14.923 20.0885 14.3996C20.3953 13.8582 20.5487 13.1544 20.5487 12.2881C20.5487 11.476 20.3953 10.7812 20.0885 10.2037C19.7997 9.62615 19.3576 9.19302 18.762 8.90427C18.1845 8.59747 17.4626 8.44407 16.5964 8.44407H14.1059C14.1059 8.42602 14.0788 8.35383 14.0247 8.2275C13.9886 8.08312 13.9435 7.93875 13.8893 7.79437C13.8532 7.64999 13.8352 7.5778 13.8352 7.5778ZM15.1616 7.5778V26.5273H13.402V7.5778H15.1616ZM13.4833 24.5511V26.5273H11.3176L11.3447 26.2566C11.3808 26.2566 11.4349 26.2566 11.5071 26.2566C11.5973 26.2566 11.6515 26.2566 11.6695 26.2566C12.1387 26.2566 12.5448 26.0942 12.8877 25.7693C13.2306 25.4264 13.402 25.0203 13.402 24.5511H13.4833ZM13.4833 9.55396H13.402C13.402 9.08474 13.2306 8.6877 12.8877 8.36285C12.5448 8.01996 12.1387 7.84851 11.6695 7.84851C11.6515 7.84851 11.5973 7.84851 11.5071 7.84851C11.4349 7.84851 11.3808 7.84851 11.3447 7.84851L11.3176 7.5778H13.4833V9.55396ZM44.944 7.5778V26.5273H43.1844V7.5778H44.944ZM32.1125 7.5778V26.5273H30.3529V7.5778H32.1125ZM43.4281 16.7548V17.5669H31.8418V16.7548H43.4281ZM30.4342 24.5511V26.5273H28.2685V26.2566C28.2685 26.2566 28.3226 26.2566 28.4309 26.2566C28.5573 26.2566 28.6204 26.2566 28.6204 26.2566C29.0896 26.2566 29.4867 26.0942 29.8115 25.7693C30.1544 25.4264 30.3349 25.0203 30.3529 24.5511H30.4342ZM30.4342 9.55396H30.3529C30.3349 9.08474 30.1544 8.6877 29.8115 8.36285C29.4867 8.01996 29.0896 7.84851 28.6204 7.84851C28.6204 7.84851 28.5573 7.84851 28.4309 7.84851C28.3226 7.84851 28.2685 7.84851 28.2685 7.84851V7.5778H30.4342V9.55396ZM32.0313 24.5511H32.1125C32.1306 25.0203 32.302 25.4264 32.6269 25.7693C32.9698 26.0942 33.3758 26.2566 33.8451 26.2566C33.8451 26.2566 33.8992 26.2566 34.0075 26.2566C34.1158 26.2566 34.1789 26.2566 34.197 26.2566V26.5273H32.0313V24.5511ZM32.0313 9.55396V7.5778H34.197V7.84851C34.1789 7.84851 34.1158 7.84851 34.0075 7.84851C33.8992 7.84851 33.8451 7.84851 33.8451 7.84851C33.3758 7.84851 32.9698 8.01996 32.6269 8.36285C32.302 8.6877 32.1306 9.08474 32.1125 9.55396H32.0313ZM43.2657 24.5511V26.5273H41.1V26.2566C41.1181 26.2566 41.1812 26.2566 41.2895 26.2566C41.3978 26.2566 41.4519 26.2566 41.4519 26.2566C41.9211 26.2566 42.3272 26.0942 42.6701 25.7693C43.013 25.4264 43.1844 25.0203 43.1844 24.5511H43.2657ZM43.2657 9.55396H43.1844C43.1844 9.08474 43.013 8.6877 42.6701 8.36285C42.3272 8.01996 41.9211 7.84851 41.4519 7.84851C41.4519 7.84851 41.3978 7.84851 41.2895 7.84851C41.1812 7.84851 41.1181 7.84851 41.1 7.84851V7.5778H43.2657V9.55396ZM44.8628 24.5511H44.944C44.9621 25.0203 45.1335 25.4264 45.4584 25.7693C45.8013 26.0942 46.2073 26.2566 46.6766 26.2566C46.6766 26.2566 46.7307 26.2566 46.839 26.2566C46.9653 26.2566 47.0285 26.2566 47.0285 26.2566V26.5273H44.8628V24.5511ZM44.8628 9.55396V7.5778H47.0285V7.84851C47.0285 7.84851 46.9653 7.84851 46.839 7.84851C46.7307 7.84851 46.6766 7.84851 46.6766 7.84851C46.2073 7.84851 45.8013 8.01996 45.4584 8.36285C45.1335 8.6877 44.9621 9.08474 44.944 9.55396H44.8628ZM59.7375 7.19881L67.7505 26.3649H65.4495L59.1961 9.77053L59.7375 7.19881ZM53.9173 24.5511C53.791 24.9121 53.773 25.2189 53.8632 25.4715C53.9534 25.7242 54.0978 25.9227 54.2963 26.0671C54.5129 26.1934 54.7295 26.2566 54.946 26.2566H55.1897V26.5273H49.7485V26.2566C49.7485 26.2566 49.7936 26.2566 49.8838 26.2566C49.956 26.2566 49.9921 26.2566 49.9921 26.2566C50.4072 26.2566 50.8313 26.1302 51.2644 25.8776C51.7156 25.6069 52.0856 25.1647 52.3743 24.5511H53.9173ZM59.7375 7.19881L59.9812 9.09376L53.1864 26.4461H51.5622L58.4923 9.9871C58.4923 9.9871 58.5374 9.87881 58.6276 9.66225C58.7359 9.42763 58.8532 9.1479 58.9796 8.82306C59.1239 8.49821 59.2412 8.18238 59.3315 7.87558C59.4398 7.56878 59.4939 7.34319 59.4939 7.19881H59.7375ZM63.5545 19.137V19.9491H55.0814V19.137H63.5545ZM64.7727 24.5511H66.9925C67.2632 25.1647 67.6241 25.6069 68.0753 25.8776C68.5265 26.1302 68.9596 26.2566 69.3747 26.2566C69.3747 26.2566 69.4108 26.2566 69.483 26.2566C69.5552 26.2566 69.5913 26.2566 69.5913 26.2566V26.5273H63.5004V26.2566H63.744C64.0869 26.2566 64.3937 26.1122 64.6644 25.8234C64.9351 25.5166 64.9712 25.0925 64.7727 24.5511ZM70.0502 7.74023H72.2429L77.2781 23.9014L76.8179 26.8521L70.0502 7.74023ZM82.1779 7.14467L82.3944 9.3374L77.63 23.8473C77.63 23.8473 77.5849 24.0097 77.4946 24.3346C77.4044 24.6414 77.3142 25.0294 77.2239 25.4986C77.1337 25.9498 77.0796 26.401 77.0615 26.8521H76.8179L76.3306 24.4428L81.9342 7.14467H82.1779ZM82.1779 7.17174L87.8627 23.1164L87.2672 26.8521L81.2575 10.0954L82.1779 7.17174ZM93.1686 7.74023L88.1063 23.8473C88.1063 23.8473 88.0612 24.0097 87.971 24.3346C87.8808 24.6594 87.7815 25.0564 87.6732 25.5257C87.583 25.9768 87.5288 26.419 87.5108 26.8521H87.2672L86.9423 24.1721L91.6526 7.74023H93.1686ZM91.1383 9.52689C91.2826 8.98548 91.2375 8.5704 91.0029 8.28164C90.7683 7.99289 90.4705 7.84851 90.1096 7.84851H89.8659V7.5778H95.1989V7.84851C95.1989 7.84851 95.1628 7.84851 95.0906 7.84851C95.0184 7.84851 94.9823 7.84851 94.9823 7.84851C94.5672 7.84851 94.116 7.98386 93.6288 8.25457C93.1415 8.50723 92.7986 8.93134 92.6001 9.52689H91.1383ZM72.8114 9.52689H70.6728C70.4563 8.93134 70.1043 8.50723 69.6171 8.25457C69.1478 7.98386 68.7057 7.84851 68.2906 7.84851C68.2906 7.84851 68.2545 7.84851 68.1823 7.84851C68.1101 7.84851 68.074 7.84851 68.074 7.84851V7.5778H74.0837V7.84851H73.8401C73.4972 7.84851 73.1904 7.99289 72.9197 8.28164C72.667 8.5704 72.6309 8.98548 72.8114 9.52689ZM103.712 7.19881L111.724 26.3649H109.423L103.17 9.77053L103.712 7.19881ZM97.8913 24.5511C97.765 24.9121 97.747 25.2189 97.8372 25.4715C97.9274 25.7242 98.0718 25.9227 98.2703 26.0671C98.4869 26.1934 98.7035 26.2566 98.92 26.2566H99.1637V26.5273H93.7224V26.2566C93.7224 26.2566 93.7676 26.2566 93.8578 26.2566C93.93 26.2566 93.9661 26.2566 93.9661 26.2566C94.3812 26.2566 94.8053 26.1302 95.2384 25.8776C95.6896 25.6069 96.0596 25.1647 96.3483 24.5511H97.8913ZM103.712 7.19881L103.955 9.09376L97.1604 26.4461H95.5362L102.466 9.9871C102.466 9.9871 102.511 9.87881 102.602 9.66225C102.71 9.42763 102.827 9.1479 102.954 8.82306C103.098 8.49821 103.215 8.18238 103.305 7.87558C103.414 7.56878 103.468 7.34319 103.468 7.19881H103.712ZM107.528 19.137V19.9491H99.0554V19.137H107.528ZM108.747 24.5511H110.966C111.237 25.1647 111.598 25.6069 112.049 25.8776C112.5 26.1302 112.934 26.2566 113.349 26.2566C113.349 26.2566 113.385 26.2566 113.457 26.2566C113.529 26.2566 113.565 26.2566 113.565 26.2566V26.5273H107.474V26.2566H107.718C108.061 26.2566 108.368 26.1122 108.638 25.8234C108.909 25.5166 108.945 25.0925 108.747 24.5511ZM118.03 7.17174L133.758 23.9556L134.001 26.9063L118.273 10.1495L118.03 7.17174ZM118.084 24.6053V26.5273H115.837V26.2566C115.837 26.2566 115.918 26.2566 116.081 26.2566C116.243 26.2566 116.333 26.2566 116.351 26.2566C116.802 26.2566 117.19 26.0942 117.515 25.7693C117.84 25.4445 118.003 25.0564 118.003 24.6053H118.084ZM119.248 24.6053C119.248 25.0564 119.41 25.4445 119.735 25.7693C120.06 26.0942 120.448 26.2566 120.899 26.2566C120.917 26.2566 121.007 26.2566 121.17 26.2566C121.332 26.2566 121.413 26.2566 121.413 26.2566V26.5273H119.167V24.6053H119.248ZM118.03 7.17174L119.221 8.6877L119.248 26.5273H118.003V10.5556C118.003 9.63518 117.957 8.8411 117.867 8.17336C117.795 7.50562 117.759 7.17174 117.759 7.17174H118.03ZM134.001 7.5778V23.4412C134.001 24.0187 134.019 24.5782 134.055 25.1196C134.092 25.643 134.128 26.0761 134.164 26.419C134.218 26.7438 134.245 26.9063 134.245 26.9063H134.001L132.783 25.4715V7.5778H134.001ZM136.167 7.5778V7.84851C136.167 7.84851 136.086 7.84851 135.923 7.84851C135.761 7.84851 135.68 7.84851 135.68 7.84851C135.229 7.84851 134.84 8.01093 134.516 8.33578C134.191 8.64258 134.019 9.0306 134.001 9.49982H133.92V7.5778H136.167ZM130.59 7.5778H132.837V9.49982H132.783C132.765 9.0306 132.594 8.64258 132.269 8.33578C131.962 8.01093 131.574 7.84851 131.105 7.84851C131.105 7.84851 131.024 7.84851 130.861 7.84851C130.699 7.84851 130.608 7.84851 130.59 7.84851V7.5778ZM143.938 7.5778V26.5273H142.178V7.5778H143.938ZM142.259 24.5511V26.5273H140.094V26.2566C140.094 26.2566 140.148 26.2566 140.256 26.2566C140.382 26.2566 140.446 26.2566 140.446 26.2566C140.915 26.2566 141.312 26.0942 141.637 25.7693C141.98 25.4264 142.16 25.0203 142.178 24.5511H142.259ZM142.259 9.55396H142.178C142.16 9.08474 141.98 8.6877 141.637 8.36285C141.312 8.01996 140.915 7.84851 140.446 7.84851C140.446 7.84851 140.382 7.84851 140.256 7.84851C140.148 7.84851 140.094 7.84851 140.094 7.84851V7.5778H142.259V9.55396ZM143.857 24.5511H143.938C143.956 25.0203 144.127 25.4264 144.452 25.7693C144.795 26.0942 145.201 26.2566 145.67 26.2566C145.67 26.2566 145.724 26.2566 145.833 26.2566C145.941 26.2566 146.004 26.2566 146.022 26.2566V26.5273H143.857V24.5511ZM143.857 9.55396V7.5778H146.022V7.84851C146.004 7.84851 145.941 7.84851 145.833 7.84851C145.724 7.84851 145.67 7.84851 145.67 7.84851C145.201 7.84851 144.795 8.01996 144.452 8.36285C144.127 8.6877 143.956 9.08474 143.938 9.55396H143.857ZM167.892 7.5778C169.823 7.5778 171.511 7.97484 172.955 8.76891C174.416 9.54494 175.553 10.6458 176.365 12.0715C177.196 13.4973 177.611 15.1576 177.611 17.0525C177.611 18.9475 177.196 20.6078 176.365 22.0335C175.553 23.4412 174.416 24.5421 172.955 25.3362C171.511 26.1302 169.823 26.5273 167.892 26.5273H162.099L162.072 25.7152C162.072 25.7152 162.262 25.7152 162.641 25.7152C163.038 25.7152 163.525 25.7152 164.102 25.7152C164.698 25.7152 165.285 25.7152 165.862 25.7152C166.44 25.7152 166.918 25.7152 167.297 25.7152C167.694 25.7152 167.892 25.7152 167.892 25.7152C169.444 25.7152 170.789 25.3542 171.926 24.6323C173.081 23.9104 173.974 22.8998 174.606 21.6004C175.256 20.301 175.58 18.7851 175.58 17.0525C175.58 15.32 175.256 13.8041 174.606 12.5047C173.974 11.2053 173.081 10.1946 171.926 9.47275C170.771 8.75087 169.426 8.38992 167.892 8.38992C167.892 8.38992 167.685 8.38992 167.27 8.38992C166.873 8.38992 166.367 8.38992 165.754 8.38992C165.158 8.38992 164.554 8.38992 163.94 8.38992C163.344 8.38992 162.839 8.38992 162.424 8.38992C162.009 8.38992 161.801 8.38992 161.801 8.38992V7.5778H167.892ZM162.559 7.5778V26.5273H160.8V7.5778H162.559ZM160.881 24.5511V26.5273H158.715V26.2566C158.715 26.2566 158.769 26.2566 158.878 26.2566C159.004 26.2566 159.067 26.2566 159.067 26.2566C159.536 26.2566 159.934 26.0942 160.258 25.7693C160.601 25.4264 160.782 25.0203 160.8 24.5511H160.881ZM160.881 9.55396H160.8C160.8 9.08474 160.628 8.6877 160.285 8.36285C159.943 8.01996 159.536 7.84851 159.067 7.84851C159.067 7.84851 159.013 7.84851 158.905 7.84851C158.797 7.84851 158.742 7.84851 158.742 7.84851L158.715 7.5778H160.881V9.55396ZM185.221 7.5778V26.5273H183.461V7.5778H185.221ZM192.53 25.6881V26.5273H185.139V25.6881H192.53ZM191.366 16.7818V17.594H185.139V16.7818H191.366ZM192.53 7.5778V8.417H185.139V7.5778H192.53ZM194.181 22.1418L192.611 26.5273H188.117L189.092 25.6881C190.048 25.6881 190.824 25.5437 191.42 25.255C192.033 24.9482 192.53 24.5241 192.909 23.9826C193.288 23.4412 193.621 22.8276 193.91 22.1418H194.181ZM191.366 17.5398V19.3265H191.095V18.9204C191.095 18.5595 190.969 18.2527 190.716 18C190.463 17.7293 190.156 17.594 189.795 17.594V17.5398H191.366ZM191.366 15.0493V16.836H189.795V16.7818C190.156 16.7638 190.463 16.6284 190.716 16.3758C190.969 16.1051 191.095 15.7892 191.095 15.4283V15.0493H191.366ZM192.53 8.33578V10.5014H192.259V10.0142C192.259 9.58104 192.105 9.21107 191.799 8.90427C191.492 8.57942 191.113 8.40797 190.662 8.38992V8.33578H192.53ZM192.53 7.09053V7.87558L189.227 7.5778C189.624 7.5778 190.039 7.55073 190.472 7.49659C190.923 7.44245 191.338 7.37929 191.717 7.3071C192.096 7.23491 192.367 7.16272 192.53 7.09053ZM183.542 24.5511V26.5273H181.376V26.2566C181.376 26.2566 181.431 26.2566 181.539 26.2566C181.665 26.2566 181.728 26.2566 181.728 26.2566C182.198 26.2566 182.595 26.0942 182.919 25.7693C183.262 25.4264 183.443 25.0203 183.461 24.5511H183.542ZM183.542 9.55396H183.461C183.461 9.08474 183.289 8.6877 182.947 8.36285C182.604 8.01996 182.198 7.84851 181.728 7.84851C181.728 7.84851 181.674 7.84851 181.566 7.84851C181.458 7.84851 181.404 7.84851 181.404 7.84851L181.376 7.5778H183.542V9.55396ZM215.421 18.6226L215.096 22.8727C214.627 23.6488 214.031 24.3436 213.31 24.9572C212.606 25.5527 211.766 26.031 210.792 26.3919C209.835 26.7348 208.735 26.9063 207.489 26.9063C205.612 26.8882 203.943 26.4731 202.481 25.661C201.019 24.8489 199.873 23.7119 199.043 22.2501C198.231 20.7703 197.825 19.0287 197.825 17.0255C197.825 15.0583 198.231 13.3439 199.043 11.882C199.855 10.4022 200.992 9.25619 202.454 8.44407C203.934 7.6139 205.667 7.19881 207.652 7.19881C208.987 7.19881 210.187 7.37929 211.252 7.74023C212.335 8.08312 213.273 8.51625 214.068 9.03962L214.609 12.8566H214.365C213.968 11.2684 213.156 10.0683 211.929 9.25619C210.702 8.42602 209.276 8.01094 207.652 8.01094C206.064 8.01094 204.683 8.38992 203.51 9.1479C202.355 9.88784 201.453 10.9346 200.803 12.2881C200.171 13.6236 199.855 15.1937 199.855 16.9984C199.855 18.8031 200.171 20.3822 200.803 21.7358C201.453 23.0893 202.346 24.1451 203.483 24.903C204.638 25.661 205.973 26.0581 207.489 26.0942C208.771 26.0942 209.953 25.8595 211.036 25.3903C212.136 24.903 213.057 24.118 213.797 23.0352C214.537 21.9343 215.006 20.4634 215.204 18.6226H215.421ZM229.735 7.19881C231.666 7.19881 233.363 7.6139 234.824 8.44407C236.286 9.25619 237.423 10.4022 238.235 11.882C239.065 13.3619 239.481 15.0854 239.481 17.0525C239.481 19.0197 239.065 20.7432 238.235 22.223C237.423 23.7029 236.286 24.8579 234.824 25.6881C233.363 26.5002 231.666 26.9063 229.735 26.9063C227.822 26.9063 226.135 26.5002 224.673 25.6881C223.211 24.8579 222.065 23.7029 221.235 22.223C220.423 20.7432 220.017 19.0197 220.017 17.0525C220.017 15.0854 220.423 13.3619 221.235 11.882C222.065 10.4022 223.211 9.25619 224.673 8.44407C226.135 7.6139 227.822 7.19881 229.735 7.19881ZM229.735 26.0942C231.269 26.0942 232.605 25.7152 233.742 24.9572C234.897 24.1992 235.79 23.1434 236.422 21.7899C237.071 20.4364 237.396 18.8573 237.396 17.0525C237.396 15.2478 237.071 13.6687 236.422 12.3152C235.79 10.9616 234.897 9.90588 233.742 9.1479C232.605 8.38992 231.269 8.01094 229.735 8.01094C228.219 8.01094 226.884 8.38992 225.729 9.1479C224.592 9.90588 223.698 10.9616 223.049 12.3152C222.417 13.6687 222.101 15.2478 222.101 17.0525C222.101 18.8573 222.417 20.4364 223.049 21.7899C223.698 23.1434 224.592 24.1992 225.729 24.9572C226.884 25.7152 228.219 26.0942 229.735 26.0942ZM246.745 7.5778H250.562C251.374 7.5778 252.105 7.69511 252.755 7.92972C253.423 8.16434 253.982 8.50723 254.433 8.95841C254.884 9.39154 255.227 9.92393 255.462 10.5556C255.715 11.1692 255.841 11.873 255.841 12.6671C255.841 13.5334 255.633 14.3635 255.218 15.1576C254.821 15.9517 254.271 16.6014 253.567 17.1067C252.881 17.594 252.105 17.8376 251.239 17.8376C251.546 17.9639 251.88 18.2256 252.241 18.6226C252.601 19.0016 252.917 19.3716 253.188 19.7325C253.188 19.7325 253.305 19.913 253.54 20.274C253.793 20.6169 254.099 21.041 254.46 21.5463C254.839 22.0516 255.218 22.5479 255.597 23.0352C255.976 23.5224 256.301 23.9104 256.572 24.1992C256.933 24.5962 257.294 24.9482 257.655 25.255C258.016 25.5618 258.404 25.8054 258.819 25.9859C259.252 26.1663 259.73 26.2566 260.253 26.2566V26.5273H258.765C257.934 26.5273 257.213 26.401 256.599 26.1483C256.003 25.8956 255.498 25.5888 255.083 25.2279C254.668 24.8489 254.316 24.488 254.027 24.1451C253.973 24.0729 253.82 23.8653 253.567 23.5224C253.332 23.1795 253.044 22.7735 252.701 22.3043C252.376 21.817 252.051 21.3387 251.726 20.8695C251.401 20.4003 251.122 20.0032 250.887 19.6784C250.652 19.3355 250.517 19.137 250.481 19.0828C250.138 18.6317 249.759 18.2166 249.344 17.8376C248.929 17.4586 248.478 17.2691 247.99 17.2691V16.9984C247.99 16.9984 248.126 17.0074 248.397 17.0255C248.685 17.0255 249.028 17.0164 249.425 16.9984C249.894 16.9804 250.409 16.9082 250.968 16.7818C251.528 16.6555 252.051 16.3938 252.538 15.9968C253.026 15.5998 253.396 14.9952 253.648 14.1831C253.702 13.9845 253.747 13.7409 253.784 13.4521C253.82 13.1453 253.829 12.8476 253.811 12.5588C253.793 11.3316 253.477 10.3571 252.863 9.63518C252.268 8.89524 251.465 8.49821 250.454 8.44407C249.949 8.40797 249.425 8.39895 248.884 8.417C248.36 8.417 247.918 8.417 247.557 8.417C247.196 8.417 247.016 8.417 247.016 8.417C247.016 8.39895 246.989 8.32676 246.935 8.20043C246.899 8.05605 246.853 7.9207 246.799 7.79437C246.763 7.64999 246.745 7.5778 246.745 7.5778ZM247.097 7.5778V26.5273H245.338V7.5778H247.097ZM245.419 24.5511V26.5273H243.253V26.2566C243.253 26.2566 243.307 26.2566 243.415 26.2566C243.542 26.2566 243.605 26.2566 243.605 26.2566C244.074 26.2566 244.471 26.0942 244.796 25.7693C245.139 25.4264 245.319 25.0203 245.338 24.5511H245.419ZM245.419 9.55396H245.338C245.319 9.08474 245.139 8.6877 244.796 8.36285C244.471 8.01996 244.074 7.84851 243.605 7.84851C243.605 7.84851 243.542 7.84851 243.415 7.84851C243.307 7.84851 243.253 7.84851 243.253 7.84851V7.5778H245.419V9.55396ZM247.016 24.5511H247.097C247.097 25.0203 247.269 25.4264 247.611 25.7693C247.954 26.0942 248.36 26.2566 248.83 26.2566C248.83 26.2566 248.884 26.2566 248.992 26.2566C249.1 26.2566 249.154 26.2566 249.154 26.2566V26.5273H247.016V24.5511ZM270.202 7.19881L278.214 26.3649H275.913L269.66 9.77053L270.202 7.19881ZM264.381 24.5511C264.255 24.9121 264.237 25.2189 264.327 25.4715C264.417 25.7242 264.562 25.9227 264.76 26.0671C264.977 26.1934 265.193 26.2566 265.41 26.2566H265.654V26.5273H260.212V26.2566C260.212 26.2566 260.258 26.2566 260.348 26.2566C260.42 26.2566 260.456 26.2566 260.456 26.2566C260.871 26.2566 261.295 26.1302 261.728 25.8776C262.18 25.6069 262.55 25.1647 262.838 24.5511H264.381ZM270.202 7.19881L270.445 9.09376L263.65 26.4461H262.026L268.956 9.9871C268.956 9.9871 269.001 9.87881 269.092 9.66225C269.2 9.42763 269.317 9.1479 269.444 8.82306C269.588 8.49821 269.705 8.18238 269.795 7.87558C269.904 7.56878 269.958 7.34319 269.958 7.19881H270.202ZM274.018 19.137V19.9491H265.545V19.137H274.018ZM275.237 24.5511H277.456C277.727 25.1647 278.088 25.6069 278.539 25.8776C278.99 26.1302 279.424 26.2566 279.839 26.2566C279.839 26.2566 279.875 26.2566 279.947 26.2566C280.019 26.2566 280.055 26.2566 280.055 26.2566V26.5273H273.964V26.2566H274.208C274.551 26.2566 274.858 26.1122 275.128 25.8234C275.399 25.5166 275.435 25.0925 275.237 24.5511ZM288.463 7.65902V26.5273H286.704V7.65902H288.463ZM295.421 7.55073V8.36285H279.747V7.55073H295.421ZM295.421 8.28164V10.4744L295.15 10.4473V9.9871C295.15 9.53592 294.987 9.15693 294.663 8.85013C294.356 8.54333 293.986 8.3809 293.553 8.36285V8.28164H295.421ZM295.421 7.06346V7.84851L292.118 7.55073C292.515 7.55073 292.93 7.52366 293.363 7.46952C293.814 7.41538 294.229 7.35222 294.608 7.28003C294.987 7.20784 295.258 7.13565 295.421 7.06346ZM286.785 24.5511V26.5273H284.619V26.2566C284.619 26.2566 284.674 26.2566 284.782 26.2566C284.908 26.2566 284.971 26.2566 284.971 26.2566C285.441 26.2566 285.838 26.0942 286.162 25.7693C286.505 25.4264 286.686 25.0203 286.704 24.5511H286.785ZM288.382 24.5511H288.463C288.481 25.0203 288.653 25.4264 288.978 25.7693C289.321 26.0942 289.727 26.2566 290.196 26.2566C290.196 26.2566 290.25 26.2566 290.358 26.2566C290.485 26.2566 290.548 26.2566 290.548 26.2566V26.5273H288.382V24.5511ZM281.615 8.28164V8.36285C281.163 8.3809 280.784 8.54333 280.478 8.85013C280.171 9.15693 280.017 9.53592 280.017 9.9871V10.4473L279.747 10.4744V8.28164H281.615ZM279.747 7.06346C279.927 7.13565 280.198 7.20784 280.559 7.28003C280.938 7.35222 281.353 7.41538 281.804 7.46952C282.255 7.52366 282.67 7.55073 283.049 7.55073L279.747 7.84851V7.06346ZM308.219 7.19881C310.15 7.19881 311.846 7.6139 313.308 8.44407C314.77 9.25619 315.907 10.4022 316.719 11.882C317.549 13.3619 317.964 15.0854 317.964 17.0525C317.964 19.0197 317.549 20.7432 316.719 22.223C315.907 23.7029 314.77 24.8579 313.308 25.6881C311.846 26.5002 310.15 26.9063 308.219 26.9063C306.306 26.9063 304.619 26.5002 303.157 25.6881C301.695 24.8579 300.549 23.7029 299.719 22.223C298.907 20.7432 298.501 19.0197 298.501 17.0525C298.501 15.0854 298.907 13.3619 299.719 11.882C300.549 10.4022 301.695 9.25619 303.157 8.44407C304.619 7.6139 306.306 7.19881 308.219 7.19881ZM308.219 26.0942C309.753 26.0942 311.088 25.7152 312.225 24.9572C313.38 24.1992 314.274 23.1434 314.905 21.7899C315.555 20.4364 315.88 18.8573 315.88 17.0525C315.88 15.2478 315.555 13.6687 314.905 12.3152C314.274 10.9616 313.38 9.90588 312.225 9.1479C311.088 8.38992 309.753 8.01094 308.219 8.01094C306.703 8.01094 305.367 8.38992 304.212 9.1479C303.075 9.90588 302.182 10.9616 301.532 12.3152C300.901 13.6687 300.585 15.2478 300.585 17.0525C300.585 18.8573 300.901 20.4364 301.532 21.7899C302.182 23.1434 303.075 24.1992 304.212 24.9572C305.367 25.7152 306.703 26.0942 308.219 26.0942ZM325.229 7.5778H329.046C329.858 7.5778 330.589 7.69511 331.239 7.92972C331.906 8.16434 332.466 8.50723 332.917 8.95841C333.368 9.39154 333.711 9.92393 333.946 10.5556C334.198 11.1692 334.325 11.873 334.325 12.6671C334.325 13.5334 334.117 14.3635 333.702 15.1576C333.305 15.9517 332.755 16.6014 332.051 17.1067C331.365 17.594 330.589 17.8376 329.723 17.8376C330.03 17.9639 330.363 18.2256 330.724 18.6226C331.085 19.0016 331.401 19.3716 331.672 19.7325C331.672 19.7325 331.789 19.913 332.024 20.274C332.276 20.6169 332.583 21.041 332.944 21.5463C333.323 22.0516 333.702 22.5479 334.081 23.0352C334.46 23.5224 334.785 23.9104 335.056 24.1992C335.417 24.5962 335.778 24.9482 336.139 25.255C336.499 25.5618 336.887 25.8054 337.303 25.9859C337.736 26.1663 338.214 26.2566 338.737 26.2566V26.5273H337.248C336.418 26.5273 335.696 26.401 335.083 26.1483C334.487 25.8956 333.982 25.5888 333.567 25.2279C333.152 24.8489 332.8 24.488 332.511 24.1451C332.457 24.0729 332.304 23.8653 332.051 23.5224C331.816 23.1795 331.527 22.7735 331.185 22.3043C330.86 21.817 330.535 21.3387 330.21 20.8695C329.885 20.4003 329.605 20.0032 329.371 19.6784C329.136 19.3355 329.001 19.137 328.965 19.0828C328.622 18.6317 328.243 18.2166 327.828 17.8376C327.413 17.4586 326.962 17.2691 326.474 17.2691V16.9984C326.474 16.9984 326.61 17.0074 326.88 17.0255C327.169 17.0255 327.512 17.0164 327.909 16.9984C328.378 16.9804 328.893 16.9082 329.452 16.7818C330.012 16.6555 330.535 16.3938 331.022 15.9968C331.509 15.5998 331.879 14.9952 332.132 14.1831C332.186 13.9845 332.231 13.7409 332.267 13.4521C332.304 13.1453 332.313 12.8476 332.294 12.5588C332.276 11.3316 331.961 10.3571 331.347 9.63518C330.751 8.89524 329.948 8.49821 328.938 8.44407C328.432 8.40797 327.909 8.39895 327.368 8.417C326.844 8.417 326.402 8.417 326.041 8.417C325.68 8.417 325.5 8.417 325.5 8.417C325.5 8.39895 325.473 8.32676 325.419 8.20043C325.382 8.05605 325.337 7.9207 325.283 7.79437C325.247 7.64999 325.229 7.5778 325.229 7.5778ZM325.581 7.5778V26.5273H323.821V7.5778H325.581ZM323.903 24.5511V26.5273H321.737V26.2566C321.737 26.2566 321.791 26.2566 321.899 26.2566C322.026 26.2566 322.089 26.2566 322.089 26.2566C322.558 26.2566 322.955 26.0942 323.28 25.7693C323.623 25.4264 323.803 25.0203 323.821 24.5511H323.903ZM323.903 9.55396H323.821C323.803 9.08474 323.623 8.6877 323.28 8.36285C322.955 8.01996 322.558 7.84851 322.089 7.84851C322.089 7.84851 322.026 7.84851 321.899 7.84851C321.791 7.84851 321.737 7.84851 321.737 7.84851V7.5778H323.903V9.55396ZM325.5 24.5511H325.581C325.581 25.0203 325.752 25.4264 326.095 25.7693C326.438 26.0942 326.844 26.2566 327.313 26.2566C327.313 26.2566 327.368 26.2566 327.476 26.2566C327.584 26.2566 327.638 26.2566 327.638 26.2566V26.5273H325.5V24.5511ZM346.053 7.19881C346.341 7.19881 346.648 7.21686 346.973 7.25296C347.316 7.28905 347.641 7.34319 347.947 7.41538C348.272 7.46952 348.561 7.53269 348.814 7.60487C349.084 7.65902 349.292 7.72218 349.436 7.79437V10.7992H349.193C349.193 9.93295 348.895 9.25619 348.299 8.76891C347.704 8.2636 346.982 8.01094 346.134 8.01094C345.141 8.01094 344.338 8.32676 343.724 8.95841C343.111 9.57201 342.804 10.2939 342.804 11.1241C342.804 11.467 342.876 11.873 343.021 12.3422C343.183 12.7934 343.472 13.2175 343.887 13.6146L349.22 18.5414C349.761 19.0468 350.122 19.5882 350.303 20.1657C350.483 20.7432 350.573 21.3026 350.573 21.8441C350.573 23.342 350.113 24.5601 349.193 25.4986C348.29 26.437 347.063 26.9063 345.511 26.9063C345.078 26.9063 344.564 26.8612 343.968 26.7709C343.391 26.6807 342.822 26.5273 342.263 26.3107C341.721 26.0761 341.27 25.7783 340.909 25.4174C340.855 25.1286 340.828 24.7677 340.828 24.3346C340.828 23.9014 340.864 23.4502 340.936 22.981C341.008 22.4938 341.108 22.0516 341.234 21.6546H341.478C341.387 22.575 341.505 23.3781 341.829 24.0639C342.154 24.7496 342.624 25.273 343.237 25.634C343.869 25.9768 344.582 26.1302 345.376 26.0942C346.368 26.04 347.217 25.6971 347.92 25.0655C348.642 24.4158 349.003 23.5495 349.003 22.4667C349.003 21.9433 348.913 21.4741 348.733 21.059C348.552 20.6259 348.29 20.2559 347.947 19.9491L342.75 15.1305C342.208 14.6252 341.829 14.0748 341.613 13.4792C341.396 12.8656 341.288 12.2971 341.288 11.7738C341.288 11.0158 341.469 10.2849 341.829 9.58103C342.19 8.8772 342.723 8.30871 343.427 7.87558C344.149 7.4244 345.024 7.19881 346.053 7.19881ZM349.436 7.46952V8.03801H347.379V7.46952H349.436Z" fill="white"/>
<g clip-path="url(#clip0_183_405)">
<path d="M176.061 62.3186C175.301 63.4317 174.382 64.4275 173.333 65.2743C172.304 66.1237 171.177 66.847 169.977 67.4289C167.536 68.561 164.862 69.0982 162.173 68.9965C160.83 68.8918 159.507 68.6109 158.237 68.1609C157.003 67.7409 155.79 67.2592 154.605 66.7176C152.257 65.6541 149.985 64.5008 147.699 63.3683C143.239 61.0466 138.625 59.0368 133.887 57.3534C129.164 55.9024 124.305 54.942 119.385 54.4875H119.606C117.831 54.5911 116.07 54.5565 114.275 54.8258C113.384 54.9363 112.486 55.0123 111.595 55.1504L108.902 55.6062L107.562 55.841L106.216 56.1103L103.522 56.6559C101.72 57.0357 99.9315 57.4708 98.1291 57.8782C90.9471 59.5978 83.765 61.5659 76.5278 63.4028C69.2899 65.3034 61.9603 66.8361 54.5674 67.9952C52.7028 68.2231 50.8521 68.52 48.9806 68.6858L46.1699 68.9136C45.2307 68.9827 44.2985 69.0863 43.3524 69.0794C39.5958 69.2304 35.8333 69.1358 32.089 68.7963L29.2784 68.5269L26.5161 68.0919L25.1349 67.8709C24.6653 67.7949 24.2095 67.6775 23.7538 67.5739L20.9915 66.9524C17.3304 65.999 13.8089 64.5737 10.5154 62.7123L9.29305 61.9871L8.13288 61.1515C7.75307 60.8684 7.35252 60.6129 6.99342 60.2952L5.92302 59.3491L5.39129 58.8795L4.90097 58.3547L3.93416 57.2981C3.64412 56.9183 3.36788 56.5247 3.08475 56.1379C2.94663 55.9377 2.80161 55.7512 2.6704 55.5509L2.32512 54.9156C1.29072 53.2522 0.725366 51.34 0.688895 49.3816C0.652425 47.4231 1.1462 45.4912 2.11794 43.7904C3.05482 42.0979 4.30925 40.602 5.81254 39.3845C7.29549 38.1396 8.98859 37.1691 10.8123 36.5186C11.7518 36.192 12.7331 36.0013 13.7266 35.9523C14.2169 35.9523 14.6934 35.9523 15.1837 35.9523C15.674 35.9523 16.1505 36.0628 16.6339 36.1112C17.1173 36.1595 17.5869 36.3183 18.0703 36.415C18.5537 36.5117 19.0095 36.7189 19.4515 36.8708C20.3738 37.2446 21.246 37.7318 22.048 38.321C22.8611 38.9081 23.5885 39.6054 24.2095 40.3928C24.8402 41.1831 25.3542 42.0598 25.7357 42.9962C25.9339 43.4805 26.0865 43.9822 26.1915 44.4948L26.2606 44.916C26.2606 45.0542 26.2606 45.1854 26.2606 45.3235V46.1384C26.1254 47.2193 25.7425 48.2544 25.1418 49.1631C24.5193 50.0284 23.7305 50.7609 22.8215 51.3177C21.908 51.8546 20.9039 52.2197 19.8589 52.395C18.7887 52.5556 17.6965 52.4873 16.6546 52.1947C15.6007 51.8491 14.7045 51.1391 14.1271 50.1921L15.163 49.2805C15.8187 49.6802 16.5127 50.0133 17.2347 50.2749C17.9873 50.4822 18.7731 50.5409 19.5481 50.4476C20.3421 50.3183 21.1081 50.0544 21.8132 49.6672C22.4973 49.2593 23.0953 48.7222 23.5742 48.0858C24.0161 47.4466 24.3044 46.7139 24.4167 45.945V45.3718C24.4167 45.2751 24.4167 45.1785 24.4167 45.0818L24.3753 44.8125C24.3041 44.4118 24.1954 44.0188 24.0507 43.6385C23.7574 42.8392 23.3479 42.0876 22.8353 41.4079C22.3301 40.7174 21.7303 40.1014 21.0536 39.5779C19.673 38.5057 18.0474 37.7937 16.3231 37.5061C15.8812 37.4509 15.453 37.3473 15.0041 37.3197C14.5553 37.2921 14.1133 37.2575 13.6782 37.2575C12.8131 37.2762 11.9551 37.418 11.13 37.6788C7.69387 38.7974 4.79037 41.1428 2.97426 44.2669C2.07499 45.8077 1.59854 47.5586 1.5931 49.3426C1.66587 51.1251 2.19621 52.8588 3.13309 54.377L3.46457 54.964C3.58887 55.1504 3.72699 55.3231 3.8582 55.5095C4.12753 55.8686 4.38304 56.2415 4.66618 56.5937L5.58465 57.5812L6.04733 58.0785L6.56527 58.5273L7.59422 59.4113C7.93951 59.7013 8.33314 59.943 8.70605 60.2055L9.8248 60.9789L11.0195 61.6695C14.2434 63.4008 17.6858 64.69 21.2539 65.5022L23.954 66.0339C24.4098 66.1168 24.8518 66.2273 25.3352 66.2895L26.7163 66.4621L29.4787 66.8074L32.241 66.9869C35.9205 67.216 39.6107 67.216 43.2902 66.9869C44.2087 66.9869 45.1203 66.8419 46.0525 66.7452L48.8149 66.4552C50.638 66.248 52.4542 65.9096 54.2773 65.6403C61.5485 64.3157 68.745 62.6099 75.8372 60.53C82.9709 58.5066 90.0562 56.2553 97.2451 54.225C104.434 52.1947 111.844 50.4752 119.675 50.2818H119.772H119.896C122.515 50.574 125.102 51.1057 127.624 51.8702C130.112 52.6461 132.56 53.5473 134.958 54.5703C139.696 56.5453 144.309 58.8101 148.769 61.3518C151 62.5741 153.203 63.831 155.447 64.929C157.691 66.027 159.991 67.0422 162.305 67.2701C163.5 67.3406 164.699 67.2804 165.882 67.0905C167.068 66.8702 168.226 66.5181 169.335 66.0408C170.433 65.5371 171.467 64.9042 172.415 64.1556C173.355 63.4174 174.189 62.5529 174.894 61.5866L176.061 62.3186Z" fill="white"/>
<path d="M16.1291 51.4213C17.342 51.4213 18.3252 50.4381 18.3252 49.2253C18.3252 48.0124 17.342 47.0292 16.1291 47.0292C14.9163 47.0292 13.9331 48.0124 13.9331 49.2253C13.9331 50.4381 14.9163 51.4213 16.1291 51.4213Z" fill="white"/>
<path d="M174.348 63.1402C175.561 63.1402 176.544 62.157 176.544 60.9441C176.544 59.7313 175.561 58.7481 174.348 58.7481C173.135 58.7481 172.152 59.7313 172.152 60.9441C172.152 62.157 173.135 63.1402 174.348 63.1402Z" fill="white"/>
</g>
<g clip-path="url(#clip1_183_405)">
<path d="M185.939 62.3187C186.699 63.4318 187.618 64.4276 188.667 65.2744C189.696 66.1238 190.823 66.8471 192.023 67.429C194.464 68.5611 197.138 69.0984 199.827 68.9966C201.17 68.8919 202.493 68.611 203.763 68.161C204.997 67.741 206.209 67.2593 207.395 66.7177C209.743 65.6542 212.015 64.501 214.301 63.3684C218.761 61.0468 223.375 59.037 228.113 57.3535C232.836 55.9025 237.695 54.9422 242.615 54.4876H242.394C244.169 54.5912 245.93 54.5566 247.725 54.826C248.616 54.9365 249.514 55.0124 250.405 55.1505L253.098 55.6063L254.438 55.8411L255.784 56.1104L258.478 56.656C260.28 57.0358 262.069 57.4709 263.871 57.8783C271.053 59.5979 278.235 61.566 285.472 63.403C292.71 65.3035 300.04 66.8362 307.433 67.9953C309.297 68.2232 311.148 68.5201 313.019 68.6859L315.83 68.9138C316.769 68.9828 317.702 69.0864 318.648 69.0795C322.404 69.2305 326.167 69.1359 329.911 68.7964L332.722 68.527L335.484 68.092L336.865 67.871C337.335 67.795 337.79 67.6776 338.246 67.574L341.009 66.9525C344.67 65.9991 348.191 64.5738 351.485 62.7124L352.707 61.9873L353.867 61.1517C354.247 60.8685 354.647 60.613 355.007 60.2954L356.077 59.3492L356.609 58.8797L357.099 58.3548L358.066 57.2982C358.356 56.9184 358.632 56.5248 358.915 56.1381C359.053 55.9378 359.198 55.7513 359.33 55.5511L359.675 54.9157C360.709 53.2523 361.275 51.3401 361.311 49.3817C361.348 47.4232 360.854 45.4913 359.882 43.7905C358.945 42.0981 357.691 40.6021 356.187 39.3846C354.705 38.1397 353.011 37.1692 351.188 36.5187C350.248 36.1921 349.267 36.0014 348.273 35.9525C347.783 35.9525 347.307 35.9525 346.816 35.9525C346.326 35.9525 345.85 36.0629 345.366 36.1113C344.883 36.1596 344.413 36.3185 343.93 36.4151C343.446 36.5118 342.991 36.719 342.549 36.8709C341.626 37.2447 340.754 37.7319 339.952 38.3211C339.139 38.9082 338.411 39.6055 337.79 40.3929C337.16 41.1832 336.646 42.06 336.264 42.9964C336.066 43.4806 335.914 43.9823 335.808 44.4949L335.739 44.9162C335.739 45.0543 335.739 45.1855 335.739 45.3236V46.1385C335.875 47.2194 336.257 48.2545 336.858 49.1632C337.481 50.0285 338.27 50.761 339.179 51.3178C340.092 51.8547 341.096 52.2199 342.141 52.3951C343.211 52.5557 344.303 52.4875 345.345 52.1949C346.399 51.8493 347.295 51.1392 347.873 50.1922L346.837 49.2806C346.181 49.6803 345.487 50.0134 344.765 50.2751C344.013 50.4824 343.227 50.541 342.452 50.4477C341.658 50.3184 340.892 50.0545 340.187 49.6673C339.503 49.2594 338.905 48.7223 338.426 48.0859C337.984 47.4467 337.696 46.7141 337.583 45.9451V45.3719C337.583 45.2753 337.583 45.1786 337.583 45.0819L337.625 44.8126C337.696 44.412 337.805 44.0189 337.949 43.6386C338.243 42.8394 338.652 42.0878 339.165 41.408C339.67 40.7175 340.27 40.1015 340.946 39.578C342.327 38.5058 343.953 37.7938 345.677 37.5063C346.119 37.451 346.547 37.3474 346.996 37.3198C347.445 37.2922 347.887 37.2576 348.322 37.2576C349.187 37.2763 350.045 37.4182 350.87 37.6789C354.306 38.7975 357.21 41.1429 359.026 44.267C359.925 45.8078 360.401 47.5588 360.407 49.3428C360.334 51.1252 359.804 52.859 358.867 54.3771L358.535 54.9641C358.411 55.1505 358.273 55.3232 358.142 55.5096C357.872 55.8687 357.617 56.2416 357.334 56.5938L356.415 57.5814L355.953 58.0786L355.435 58.5275L354.406 59.4114C354.06 59.7015 353.667 59.9432 353.294 60.2056L352.175 60.979L350.981 61.6696C347.757 63.401 344.314 64.6901 340.746 65.5023L338.046 66.0341C337.59 66.1169 337.148 66.2274 336.665 66.2896L335.284 66.4622L332.521 66.8075L329.759 66.987C326.08 67.2161 322.389 67.2161 318.71 66.987C317.791 66.987 316.88 66.842 315.947 66.7454L313.185 66.4553C311.362 66.2481 309.546 65.9098 307.723 65.6404C300.452 64.3158 293.255 62.61 286.163 60.5301C279.029 58.5068 271.944 56.2555 264.755 54.2252C257.566 52.1949 250.156 50.4753 242.325 50.282H242.228H242.104C239.485 50.5741 236.898 51.1058 234.376 51.8703C231.888 52.6462 229.44 53.5474 227.042 54.5705C222.304 56.5454 217.691 58.8102 213.231 61.3519C211 62.5743 208.797 63.8311 206.553 64.9291C204.309 66.0272 202.009 67.0423 199.695 67.2702C198.5 67.3407 197.301 67.2805 196.118 67.0906C194.932 66.8703 193.774 66.5182 192.665 66.041C191.567 65.5372 190.533 64.9043 189.585 64.1557C188.645 63.4175 187.811 62.553 187.106 61.5867L185.939 62.3187Z" fill="white"/>
<path d="M345.871 51.4214C344.658 51.4214 343.675 50.4382 343.675 49.2254C343.675 48.0126 344.658 47.0294 345.871 47.0294C347.084 47.0294 348.067 48.0126 348.067 49.2254C348.067 50.4382 347.084 51.4214 345.871 51.4214Z" fill="white"/>
<path d="M187.652 63.1403C186.439 63.1403 185.456 62.1571 185.456 60.9443C185.456 59.7314 186.439 58.7482 187.652 58.7482C188.865 58.7482 189.848 59.7314 189.848 60.9443C189.848 62.1571 188.865 63.1403 187.652 63.1403Z" fill="white"/>
</g>
<defs>
<clipPath id="clip0_183_405">
<rect width="178.169" height="33.8383" fill="white" transform="translate(0.71582 35.6346)"/>
</clipPath>
<clipPath id="clip1_183_405">
<rect width="178.169" height="33.8383" fill="white" transform="matrix(-1 0 0 1 361.284 35.6346)"/>
</clipPath>
</defs>
</svg>
