<svg width="428" height="82" viewBox="0 0 428 82" fill="none" xmlns="http://www.w3.org/2000/svg">
<path d="M4.63608 8.35H10.1721C11.7294 8.35 13.1161 8.542 14.3321 8.926C15.5694 9.28867 16.5401 9.87533 17.2441 10.686C17.9481 11.4753 18.3001 12.5207 18.3001 13.822C18.3001 14.8033 18.1081 15.6353 17.7241 16.318C17.3614 17.0007 16.8814 17.5233 16.2841 17.886C15.6867 18.2487 15.0574 18.4727 14.3961 18.558C15.4627 18.6433 16.4227 18.942 17.2761 19.454C18.1507 19.966 18.8334 20.6487 19.3241 21.502C19.8147 22.3553 20.0601 23.358 20.0601 24.51C20.0601 25.8753 19.6867 27.0273 18.9401 27.966C18.1934 28.8833 17.1374 29.5767 15.7721 30.046C14.4281 30.5153 12.8601 30.75 11.0681 30.75H7.90008C7.90008 30.75 7.90008 30.6327 7.90008 30.398C7.92141 30.142 7.93208 29.8967 7.93208 29.662C7.93208 29.4273 7.93208 29.31 7.93208 29.31H9.66008C10.6201 29.31 11.4627 29.1287 12.1881 28.766C12.9347 28.4033 13.5107 27.838 13.9161 27.07C14.3427 26.302 14.5561 25.3207 14.5561 24.126C14.5561 23.1873 14.4067 22.3873 14.1081 21.726C13.8307 21.0647 13.4467 20.5313 12.9561 20.126C12.4867 19.6993 11.9321 19.39 11.2921 19.198C10.6521 19.006 9.98008 18.91 9.27608 18.91V18.622C9.76674 18.622 10.2467 18.5473 10.7161 18.398C11.1854 18.2273 11.6014 17.9713 11.9641 17.63C12.3481 17.2887 12.6467 16.8407 12.8601 16.286C13.0734 15.71 13.1801 15.0273 13.1801 14.238C13.1801 13.15 13.0094 12.2753 12.6681 11.614C12.3481 10.9527 11.8787 10.4727 11.2601 10.174C10.6414 9.87533 9.92675 9.726 9.11608 9.726H4.95608C4.95608 9.70467 4.92408 9.58733 4.86008 9.374C4.81741 9.13933 4.76408 8.91533 4.70008 8.702C4.65741 8.46733 4.63608 8.35 4.63608 8.35ZM8.18808 8.35V30.75H3.38808V8.35H8.18808ZM3.48408 28.414V30.75H0.924078V30.43C0.966745 30.43 1.04141 30.43 1.14808 30.43C1.25474 30.43 1.31874 30.43 1.34008 30.43C1.89474 30.43 2.36408 30.238 2.74808 29.854C3.15341 29.4487 3.36674 28.9687 3.38808 28.414H3.48408ZM3.48408 10.686H3.38808C3.36674 10.1313 3.15341 9.662 2.74808 9.278C2.36408 8.87267 1.89474 8.67 1.34008 8.67C1.31874 8.67 1.25474 8.67 1.14808 8.67C1.04141 8.67 0.966745 8.67 0.924078 8.67V8.35H3.48408V10.686ZM46.3936 8.35V30.75H41.5936V8.35H46.3936ZM31.2256 8.35V30.75H26.4256V8.35H31.2256ZM41.8816 18.91V20.286H30.9056V18.91H41.8816ZM26.5216 28.414V30.75H23.9616V30.43C23.9616 30.43 24.0256 30.43 24.1536 30.43C24.3029 30.43 24.3776 30.43 24.3776 30.43C24.9322 30.43 25.4016 30.238 25.7856 29.854C26.1909 29.4487 26.4042 28.9687 26.4256 28.414H26.5216ZM26.5216 10.686H26.4256C26.4042 10.1313 26.1909 9.662 25.7856 9.278C25.4016 8.87267 24.9322 8.67 24.3776 8.67C24.3776 8.67 24.3029 8.67 24.1536 8.67C24.0256 8.67 23.9616 8.67 23.9616 8.67V8.35H26.5216V10.686ZM31.1296 28.414H31.2256C31.2469 28.9687 31.4496 29.4487 31.8336 29.854C32.2389 30.238 32.7189 30.43 33.2736 30.43C33.2736 30.43 33.3376 30.43 33.4656 30.43C33.5936 30.43 33.6682 30.43 33.6896 30.43V30.75H31.1296V28.414ZM31.1296 10.686V8.35H33.6896V8.67C33.6682 8.67 33.5936 8.67 33.4656 8.67C33.3376 8.67 33.2736 8.67 33.2736 8.67C32.7189 8.67 32.2389 8.87267 31.8336 9.278C31.4496 9.662 31.2469 10.1313 31.2256 10.686H31.1296ZM41.6896 28.414V30.75H39.1296V30.43C39.1509 30.43 39.2256 30.43 39.3536 30.43C39.4816 30.43 39.5456 30.43 39.5456 30.43C40.1002 30.43 40.5802 30.238 40.9856 29.854C41.3909 29.4487 41.5936 28.9687 41.5936 28.414H41.6896ZM41.6896 10.686H41.5936C41.5936 10.1313 41.3909 9.662 40.9856 9.278C40.5802 8.87267 40.1002 8.67 39.5456 8.67C39.5456 8.67 39.4816 8.67 39.3536 8.67C39.2256 8.67 39.1509 8.67 39.1296 8.67V8.35H41.6896V10.686ZM46.2976 28.414H46.3936C46.4149 28.9687 46.6176 29.4487 47.0016 29.854C47.4069 30.238 47.8869 30.43 48.4416 30.43C48.4416 30.43 48.5056 30.43 48.6336 30.43C48.7829 30.43 48.8576 30.43 48.8576 30.43V30.75H46.2976V28.414ZM46.2976 10.686V8.35H48.8576V8.67C48.8576 8.67 48.7829 8.67 48.6336 8.67C48.5056 8.67 48.4416 8.67 48.4416 8.67C47.8869 8.67 47.4069 8.87267 47.0016 9.278C46.6176 9.662 46.4149 10.1313 46.3936 10.686H46.2976ZM62.9518 7.71L73.4158 30.558H67.6558L60.9998 13.886L62.9518 7.71ZM56.0718 28.414C55.9012 28.8407 55.8692 29.2033 55.9758 29.502C56.0825 29.8007 56.2638 30.0353 56.5198 30.206C56.7758 30.3553 57.0318 30.43 57.2878 30.43H57.5758V30.75H50.7278V30.43C50.7278 30.43 50.7812 30.43 50.8878 30.43C50.9732 30.43 51.0158 30.43 51.0158 30.43C51.5065 30.43 52.0078 30.2807 52.5198 29.982C53.0532 29.662 53.4905 29.1393 53.8318 28.414H56.0718ZM62.9518 7.71L63.0798 11.614L55.1438 30.654H52.8078L61.0958 11.902C61.1598 11.774 61.2665 11.5393 61.4158 11.198C61.5865 10.8353 61.7572 10.43 61.9278 9.982C62.1198 9.534 62.2905 9.10733 62.4398 8.702C62.5892 8.27533 62.6638 7.94467 62.6638 7.71H62.9518ZM66.3118 23.134V24.478H56.9038V23.134H66.3118ZM66.7918 28.414H72.3918C72.7545 29.1393 73.1918 29.662 73.7038 29.982C74.2158 30.2807 74.7172 30.43 75.2078 30.43C75.2078 30.43 75.2505 30.43 75.3358 30.43C75.4212 30.43 75.4638 30.43 75.4638 30.43V30.75H65.2878V30.43H65.5758C66.0025 30.43 66.3758 30.2593 66.6958 29.918C67.0158 29.5553 67.0478 29.054 66.7918 28.414ZM74.3453 8.542H79.5613L84.6813 23.006L82.7613 31.326L74.3453 8.542ZM90.3453 7.838L90.9213 11.006L83.8173 27.774C83.8173 27.774 83.7533 27.9553 83.6253 28.318C83.4973 28.6807 83.3693 29.1287 83.2413 29.662C83.1347 30.1953 83.0707 30.75 83.0493 31.326H82.7613L81.8653 27.518L90.0573 7.838H90.3453ZM90.3453 7.87L97.3853 23.422L95.8493 31.326L88.1373 14.27L90.3453 7.87ZM102.729 8.542L96.7133 27.774C96.7133 27.774 96.66 27.966 96.5533 28.35C96.4467 28.7127 96.3507 29.1713 96.2653 29.726C96.18 30.2593 96.148 30.7927 96.1693 31.326H95.8493L94.9533 28.158L100.553 8.542H102.729ZM99.9453 10.654C100.116 10.014 100.063 9.52333 99.7853 9.182C99.508 8.84067 99.156 8.67 98.7293 8.67H98.4413V8.35H105.129V8.67C105.129 8.67 105.087 8.67 105.001 8.67C104.916 8.67 104.873 8.67 104.873 8.67C104.383 8.67 103.849 8.83 103.273 9.15C102.697 9.44867 102.292 9.95 102.057 10.654H99.9453ZM80.3613 10.654H75.1453C74.868 9.95 74.452 9.44867 73.8973 9.15C73.3427 8.83 72.82 8.67 72.3293 8.67C72.3293 8.67 72.2867 8.67 72.2013 8.67C72.116 8.67 72.0733 8.67 72.0733 8.67V8.35H81.8333V8.67H81.5453C81.14 8.67 80.7773 8.84067 80.4573 9.182C80.1587 9.52333 80.1267 10.014 80.3613 10.654ZM114.277 7.71L124.741 30.558H118.981L112.325 13.886L114.277 7.71ZM107.397 28.414C107.226 28.8407 107.194 29.2033 107.301 29.502C107.407 29.8007 107.589 30.0353 107.845 30.206C108.101 30.3553 108.357 30.43 108.613 30.43H108.901V30.75H102.053V30.43C102.053 30.43 102.106 30.43 102.213 30.43C102.298 30.43 102.341 30.43 102.341 30.43C102.831 30.43 103.333 30.2807 103.845 29.982C104.378 29.662 104.815 29.1393 105.157 28.414H107.397ZM114.277 7.71L114.405 11.614L106.469 30.654H104.133L112.421 11.902C112.485 11.774 112.591 11.5393 112.741 11.198C112.911 10.8353 113.082 10.43 113.253 9.982C113.445 9.534 113.615 9.10733 113.765 8.702C113.914 8.27533 113.989 7.94467 113.989 7.71H114.277ZM117.637 23.134V24.478H108.229V23.134H117.637ZM118.117 28.414H123.717C124.079 29.1393 124.517 29.662 125.029 29.982C125.541 30.2807 126.042 30.43 126.533 30.43C126.533 30.43 126.575 30.43 126.661 30.43C126.746 30.43 126.789 30.43 126.789 30.43V30.75H116.613V30.43H116.901C117.327 30.43 117.701 30.2593 118.021 29.918C118.341 29.5553 118.373 29.054 118.117 28.414ZM130.942 7.87L151.358 27.326L151.742 31.198L131.326 11.774L130.942 7.87ZM131.102 28.478V30.75H128.446V30.43C128.446 30.43 128.542 30.43 128.734 30.43C128.926 30.43 129.033 30.43 129.054 30.43C129.588 30.43 130.046 30.238 130.43 29.854C130.814 29.47 131.006 29.0113 131.006 28.478H131.102ZM135.582 28.478C135.582 29.0113 135.774 29.47 136.158 29.854C136.542 30.238 137.001 30.43 137.534 30.43C137.556 30.43 137.662 30.43 137.854 30.43C138.046 30.43 138.142 30.43 138.142 30.43V30.75H135.486V28.478H135.582ZM130.942 7.87L135.55 12.766L135.582 30.75H131.006V11.87C131.006 10.6753 130.942 9.71533 130.814 8.99C130.686 8.24333 130.622 7.87 130.622 7.87H130.942ZM151.646 8.35V27.102C151.646 27.8913 151.678 28.606 151.742 29.246C151.806 29.8647 151.87 30.3447 151.934 30.686C151.998 31.0273 152.03 31.198 152.03 31.198H151.742L147.102 26.014V8.35H151.646ZM154.206 8.35V8.67C154.206 8.67 154.11 8.67 153.918 8.67C153.726 8.67 153.63 8.67 153.63 8.67C153.097 8.67 152.638 8.862 152.254 9.246C151.87 9.60867 151.668 10.0673 151.646 10.622H151.55V8.35H154.206ZM144.51 8.35H147.166V10.622H147.102C147.081 10.0673 146.878 9.60867 146.494 9.246C146.132 8.862 145.673 8.67 145.118 8.67C145.118 8.67 145.022 8.67 144.83 8.67C144.638 8.67 144.532 8.67 144.51 8.67V8.35ZM164.882 8.35V30.75H160.082V8.35H164.882ZM160.178 28.414V30.75H157.618V30.43C157.618 30.43 157.682 30.43 157.81 30.43C157.959 30.43 158.034 30.43 158.034 30.43C158.589 30.43 159.058 30.238 159.442 29.854C159.847 29.4487 160.061 28.9687 160.082 28.414H160.178ZM160.178 10.686H160.082C160.061 10.1313 159.847 9.662 159.442 9.278C159.058 8.87267 158.589 8.67 158.034 8.67C158.034 8.67 157.959 8.67 157.81 8.67C157.682 8.67 157.618 8.67 157.618 8.67V8.35H160.178V10.686ZM164.786 28.414H164.882C164.903 28.9687 165.106 29.4487 165.49 29.854C165.895 30.238 166.375 30.43 166.93 30.43C166.93 30.43 166.994 30.43 167.122 30.43C167.25 30.43 167.325 30.43 167.346 30.43V30.75H164.786V28.414ZM164.786 10.686V8.35H167.346V8.67C167.325 8.67 167.25 8.67 167.122 8.67C166.994 8.67 166.93 8.67 166.93 8.67C166.375 8.67 165.895 8.87267 165.49 9.278C165.106 9.662 164.903 10.1313 164.882 10.686H164.786ZM192.809 8.35C195.326 8.35 197.502 8.80867 199.337 9.726C201.171 10.622 202.579 11.9127 203.561 13.598C204.563 15.262 205.065 17.246 205.065 19.55C205.065 21.854 204.563 23.8487 203.561 25.534C202.579 27.198 201.171 28.4887 199.337 29.406C197.502 30.302 195.326 30.75 192.809 30.75H185.193L185.161 29.406C185.779 29.406 186.419 29.406 187.081 29.406C187.763 29.406 188.425 29.406 189.065 29.406C189.705 29.406 190.27 29.406 190.761 29.406C191.273 29.406 191.678 29.406 191.977 29.406C192.275 29.406 192.425 29.406 192.425 29.406C193.961 29.406 195.283 29.0113 196.393 28.222C197.502 27.4113 198.355 26.27 198.953 24.798C199.55 23.326 199.849 21.5767 199.849 19.55C199.849 17.5233 199.55 15.774 198.953 14.302C198.355 12.83 197.502 11.6993 196.393 10.91C195.283 10.0993 193.961 9.694 192.425 9.694C192.425 9.694 192.265 9.694 191.945 9.694C191.646 9.694 191.23 9.694 190.697 9.694C190.163 9.694 189.566 9.694 188.905 9.694C188.243 9.694 187.561 9.694 186.857 9.694C186.153 9.694 185.481 9.694 184.841 9.694V8.35H192.809ZM188.457 8.35V30.75H183.657V8.35H188.457ZM183.753 28.414V30.75H181.193V30.43C181.193 30.43 181.257 30.43 181.385 30.43C181.534 30.43 181.609 30.43 181.609 30.43C182.163 30.43 182.633 30.238 183.017 29.854C183.422 29.4487 183.635 28.9687 183.657 28.414H183.753ZM183.753 10.686H183.657C183.657 10.1313 183.454 9.662 183.049 9.278C182.643 8.87267 182.163 8.67 181.609 8.67C181.609 8.67 181.545 8.67 181.417 8.67C181.289 8.67 181.225 8.67 181.225 8.67L181.193 8.35H183.753V10.686ZM215.932 8.35V30.75H211.132V8.35H215.932ZM224.38 29.374L225.148 30.75H215.836V29.374H224.38ZM223.196 19.038V20.382H215.836V19.038H223.196ZM224.764 8.35V9.726H215.836V8.35H224.764ZM226.716 24.19L225.244 30.75H218.972L220.124 29.374C221.19 29.374 222.129 29.1713 222.94 28.766C223.75 28.3393 224.444 27.742 225.02 26.974C225.596 26.1847 226.054 25.2567 226.396 24.19H226.716ZM223.196 20.318V23.39H222.876V23.134C222.876 22.3447 222.62 21.694 222.108 21.182C221.596 20.67 220.945 20.4033 220.156 20.382V20.318H223.196ZM223.196 16.03V19.102H220.156V19.038C220.945 19.0167 221.596 18.75 222.108 18.238C222.62 17.7047 222.876 17.0433 222.876 16.254V16.03H223.196ZM224.764 9.63V13.374H224.444V12.99C224.444 12.0087 224.145 11.2193 223.548 10.622C222.972 10.0247 222.182 9.71533 221.18 9.694V9.63H224.764ZM224.764 7.774V8.702L220.86 8.35C221.329 8.35 221.82 8.318 222.332 8.254C222.865 8.19 223.356 8.11533 223.804 8.03C224.252 7.94467 224.572 7.85933 224.764 7.774ZM211.228 28.414V30.75H208.668V30.43C208.668 30.43 208.732 30.43 208.86 30.43C209.009 30.43 209.084 30.43 209.084 30.43C209.638 30.43 210.108 30.238 210.492 29.854C210.897 29.4487 211.11 28.9687 211.132 28.414H211.228ZM211.228 10.686H211.132C211.11 10.1313 210.897 9.662 210.492 9.278C210.108 8.87267 209.638 8.67 209.084 8.67C209.084 8.67 209.009 8.67 208.86 8.67C208.732 8.67 208.668 8.67 208.668 8.67V8.35H211.228V10.686ZM251.997 21.406L252.285 26.91C251.815 27.6993 251.186 28.414 250.397 29.054C249.607 29.694 248.626 30.2167 247.453 30.622C246.279 31.006 244.893 31.198 243.293 31.198C240.69 31.1767 238.407 30.7073 236.445 29.79C234.503 28.8513 232.999 27.518 231.933 25.79C230.866 24.062 230.333 21.9713 230.333 19.518C230.333 17.1287 230.855 15.07 231.901 13.342C232.946 11.5927 234.439 10.2487 236.381 9.31C238.343 8.37133 240.679 7.902 243.389 7.902C245.095 7.902 246.621 8.07267 247.965 8.414C249.33 8.75533 250.471 9.17133 251.389 9.662L251.421 15.134H251.133C250.557 13.022 249.618 11.518 248.317 10.622C247.015 9.70467 245.49 9.246 243.741 9.246C242.034 9.246 240.573 9.662 239.357 10.494C238.141 11.326 237.202 12.4993 236.541 14.014C235.879 15.5287 235.549 17.342 235.549 19.454C235.549 21.566 235.858 23.39 236.477 24.926C237.117 26.462 238.013 27.6567 239.165 28.51C240.338 29.3633 241.714 29.8113 243.293 29.854C244.935 29.854 246.322 29.5873 247.453 29.054C248.583 28.5207 249.49 27.6353 250.173 26.398C250.877 25.1607 251.399 23.4967 251.741 21.406H251.997ZM269.605 7.902C272.165 7.902 274.384 8.382 276.261 9.342C278.16 10.2807 279.621 11.614 280.645 13.342C281.691 15.07 282.213 17.1393 282.213 19.55C282.213 21.9393 281.691 24.0087 280.645 25.758C279.621 27.486 278.16 28.83 276.261 29.79C274.384 30.7287 272.165 31.198 269.605 31.198C267.045 31.198 264.816 30.7287 262.917 29.79C261.04 28.83 259.589 27.486 258.565 25.758C257.541 24.03 257.029 21.9607 257.029 19.55C257.029 17.1607 257.541 15.102 258.565 13.374C259.589 11.6247 261.04 10.2807 262.917 9.342C264.816 8.382 267.045 7.902 269.605 7.902ZM269.605 29.854C271.12 29.854 272.421 29.438 273.509 28.606C274.597 27.7527 275.44 26.558 276.037 25.022C276.635 23.486 276.933 21.662 276.933 19.55C276.933 17.438 276.635 15.614 276.037 14.078C275.44 12.542 274.597 11.358 273.509 10.526C272.421 9.67267 271.12 9.246 269.605 9.246C268.112 9.246 266.811 9.67267 265.701 10.526C264.613 11.358 263.771 12.542 263.173 14.078C262.576 15.614 262.277 17.438 262.277 19.55C262.277 21.662 262.576 23.486 263.173 25.022C263.771 26.558 264.613 27.7527 265.701 28.606C266.811 29.438 268.112 29.854 269.605 29.854ZM292.849 8.35H296.977C297.937 8.35 298.876 8.45667 299.793 8.67C300.711 8.88333 301.521 9.22467 302.225 9.694C302.951 10.1633 303.527 10.782 303.953 11.55C304.38 12.318 304.593 13.2673 304.593 14.398C304.593 15.294 304.401 16.19 304.017 17.086C303.655 17.9607 303.089 18.718 302.321 19.358C301.553 19.9767 300.561 20.35 299.345 20.478C300.028 20.6913 300.647 21.0753 301.201 21.63C301.777 22.1847 302.247 22.7393 302.609 23.294C302.631 23.3367 302.748 23.5287 302.961 23.87C303.196 24.2113 303.473 24.638 303.793 25.15C304.135 25.6407 304.487 26.142 304.849 26.654C305.212 27.166 305.543 27.614 305.841 27.998C306.311 28.574 306.737 29.0433 307.121 29.406C307.505 29.7473 307.911 30.0033 308.337 30.174C308.764 30.3233 309.255 30.4087 309.809 30.43V30.75H306.673C305.521 30.75 304.476 30.654 303.537 30.462C302.599 30.2487 301.767 29.8967 301.041 29.406C300.316 28.9153 299.687 28.254 299.153 27.422C298.983 27.166 298.791 26.846 298.577 26.462C298.385 26.0567 298.183 25.63 297.969 25.182C297.756 24.734 297.543 24.3073 297.329 23.902C297.137 23.4753 296.967 23.0913 296.817 22.75C296.668 22.4087 296.561 22.142 296.497 21.95C296.22 21.2673 295.889 20.7553 295.505 20.414C295.143 20.0727 294.748 19.87 294.321 19.806V19.486C294.385 19.486 294.513 19.486 294.705 19.486C294.897 19.486 295.1 19.486 295.313 19.486C295.889 19.486 296.444 19.3687 296.977 19.134C297.532 18.8993 298.023 18.5153 298.449 17.982C298.876 17.4487 299.175 16.7127 299.345 15.774C299.388 15.582 299.42 15.358 299.441 15.102C299.484 14.846 299.495 14.558 299.473 14.238C299.409 12.702 299.025 11.582 298.321 10.878C297.617 10.1527 296.743 9.77933 295.697 9.758C295.399 9.73667 295.068 9.73667 294.705 9.758C294.364 9.758 294.044 9.758 293.745 9.758C293.468 9.758 293.276 9.758 293.169 9.758C293.169 9.73667 293.137 9.61933 293.073 9.406C293.031 9.17133 292.977 8.93667 292.913 8.702C292.871 8.46733 292.849 8.35 292.849 8.35ZM293.265 8.35V30.75H288.465V8.35H293.265ZM288.561 28.414V30.75H286.001V30.43C286.023 30.43 286.087 30.43 286.193 30.43C286.321 30.43 286.396 30.43 286.417 30.43C286.972 30.43 287.441 30.238 287.825 29.854C288.231 29.4487 288.444 28.9687 288.465 28.414H288.561ZM288.561 10.686H288.465C288.444 10.1313 288.231 9.662 287.825 9.278C287.441 8.87267 286.972 8.67 286.417 8.67C286.396 8.67 286.321 8.67 286.193 8.67C286.087 8.67 286.023 8.67 286.001 8.67V8.35H288.561V10.686ZM293.169 28.414H293.265C293.265 28.9687 293.468 29.4487 293.873 29.854C294.279 30.238 294.759 30.43 295.313 30.43C295.356 30.43 295.431 30.43 295.537 30.43C295.644 30.43 295.697 30.43 295.697 30.43V30.75H293.169V28.414ZM321.021 7.71L331.485 30.558H325.725L319.069 13.886L321.021 7.71ZM314.141 28.414C313.97 28.8407 313.938 29.2033 314.045 29.502C314.151 29.8007 314.333 30.0353 314.589 30.206C314.845 30.3553 315.101 30.43 315.357 30.43H315.645V30.75H308.797V30.43C308.797 30.43 308.85 30.43 308.957 30.43C309.042 30.43 309.085 30.43 309.085 30.43C309.575 30.43 310.077 30.2807 310.589 29.982C311.122 29.662 311.559 29.1393 311.901 28.414H314.141ZM321.021 7.71L321.149 11.614L313.213 30.654H310.877L319.165 11.902C319.229 11.774 319.335 11.5393 319.485 11.198C319.655 10.8353 319.826 10.43 319.997 9.982C320.189 9.534 320.359 9.10733 320.509 8.702C320.658 8.27533 320.733 7.94467 320.733 7.71H321.021ZM324.381 23.134V24.478H314.973V23.134H324.381ZM324.861 28.414H330.461C330.823 29.1393 331.261 29.662 331.773 29.982C332.285 30.2807 332.786 30.43 333.277 30.43C333.277 30.43 333.319 30.43 333.405 30.43C333.49 30.43 333.533 30.43 333.533 30.43V30.75H323.357V30.43H323.645C324.071 30.43 324.445 30.2593 324.765 29.918C325.085 29.5553 325.117 29.054 324.861 28.414ZM344.474 8.446V30.75H339.674V8.446H344.474ZM352.314 8.318V9.662H331.834V8.318H352.314ZM352.314 9.566V13.342L351.994 13.31V12.958C351.994 11.9553 351.696 11.166 351.098 10.59C350.522 9.99266 349.733 9.68333 348.73 9.662V9.566H352.314ZM352.314 7.742V8.67L348.41 8.318C348.88 8.318 349.37 8.286 349.882 8.222C350.416 8.158 350.906 8.08333 351.354 7.998C351.802 7.91267 352.122 7.82733 352.314 7.742ZM339.77 28.414V30.75H337.21V30.43C337.21 30.43 337.274 30.43 337.402 30.43C337.552 30.43 337.626 30.43 337.626 30.43C338.181 30.43 338.65 30.238 339.034 29.854C339.44 29.4487 339.653 28.9687 339.674 28.414H339.77ZM344.378 28.414H344.474C344.496 28.9687 344.698 29.4487 345.082 29.854C345.488 30.238 345.968 30.43 346.522 30.43C346.522 30.43 346.586 30.43 346.714 30.43C346.864 30.43 346.938 30.43 346.938 30.43V30.75H344.378V28.414ZM335.386 9.566V9.662C334.405 9.68333 333.616 9.99266 333.018 10.59C332.442 11.166 332.154 11.9553 332.154 12.958V13.31L331.834 13.342V9.566H335.386ZM331.834 7.742C332.048 7.82733 332.368 7.91267 332.794 7.998C333.242 8.08333 333.733 8.158 334.266 8.222C334.8 8.286 335.29 8.318 335.738 8.318L331.834 8.67V7.742ZM368.162 7.902C370.722 7.902 372.94 8.382 374.818 9.342C376.716 10.2807 378.178 11.614 379.202 13.342C380.247 15.07 380.77 17.1393 380.77 19.55C380.77 21.9393 380.247 24.0087 379.202 25.758C378.178 27.486 376.716 28.83 374.818 29.79C372.94 30.7287 370.722 31.198 368.162 31.198C365.602 31.198 363.372 30.7287 361.474 29.79C359.596 28.83 358.146 27.486 357.122 25.758C356.098 24.03 355.586 21.9607 355.586 19.55C355.586 17.1607 356.098 15.102 357.122 13.374C358.146 11.6247 359.596 10.2807 361.474 9.342C363.372 8.382 365.602 7.902 368.162 7.902ZM368.162 29.854C369.676 29.854 370.978 29.438 372.066 28.606C373.154 27.7527 373.996 26.558 374.594 25.022C375.191 23.486 375.49 21.662 375.49 19.55C375.49 17.438 375.191 15.614 374.594 14.078C373.996 12.542 373.154 11.358 372.066 10.526C370.978 9.67267 369.676 9.246 368.162 9.246C366.668 9.246 365.367 9.67267 364.258 10.526C363.17 11.358 362.327 12.542 361.73 14.078C361.132 15.614 360.834 17.438 360.834 19.55C360.834 21.662 361.132 23.486 361.73 25.022C362.327 26.558 363.17 27.7527 364.258 28.606C365.367 29.438 366.668 29.854 368.162 29.854ZM391.406 8.35H395.534C396.494 8.35 397.432 8.45667 398.35 8.67C399.267 8.88333 400.078 9.22467 400.782 9.694C401.507 10.1633 402.083 10.782 402.51 11.55C402.936 12.318 403.15 13.2673 403.15 14.398C403.15 15.294 402.958 16.19 402.574 17.086C402.211 17.9607 401.646 18.718 400.878 19.358C400.11 19.9767 399.118 20.35 397.902 20.478C398.584 20.6913 399.203 21.0753 399.758 21.63C400.334 22.1847 400.803 22.7393 401.166 23.294C401.187 23.3367 401.304 23.5287 401.518 23.87C401.752 24.2113 402.03 24.638 402.35 25.15C402.691 25.6407 403.043 26.142 403.406 26.654C403.768 27.166 404.099 27.614 404.398 27.998C404.867 28.574 405.294 29.0433 405.678 29.406C406.062 29.7473 406.467 30.0033 406.894 30.174C407.32 30.3233 407.811 30.4087 408.366 30.43V30.75H405.23C404.078 30.75 403.032 30.654 402.094 30.462C401.155 30.2487 400.323 29.8967 399.598 29.406C398.872 28.9153 398.243 28.254 397.71 27.422C397.539 27.166 397.347 26.846 397.134 26.462C396.942 26.0567 396.739 25.63 396.526 25.182C396.312 24.734 396.099 24.3073 395.886 23.902C395.694 23.4753 395.523 23.0913 395.374 22.75C395.224 22.4087 395.118 22.142 395.054 21.95C394.776 21.2673 394.446 20.7553 394.062 20.414C393.699 20.0727 393.304 19.87 392.878 19.806V19.486C392.942 19.486 393.07 19.486 393.262 19.486C393.454 19.486 393.656 19.486 393.87 19.486C394.446 19.486 395 19.3687 395.534 19.134C396.088 18.8993 396.579 18.5153 397.006 17.982C397.432 17.4487 397.731 16.7127 397.902 15.774C397.944 15.582 397.976 15.358 397.998 15.102C398.04 14.846 398.051 14.558 398.03 14.238C397.966 12.702 397.582 11.582 396.878 10.878C396.174 10.1527 395.299 9.77933 394.254 9.758C393.955 9.73667 393.624 9.73667 393.262 9.758C392.92 9.758 392.6 9.758 392.302 9.758C392.024 9.758 391.832 9.758 391.726 9.758C391.726 9.73667 391.694 9.61933 391.63 9.406C391.587 9.17133 391.534 8.93667 391.47 8.702C391.427 8.46733 391.406 8.35 391.406 8.35ZM391.822 8.35V30.75H387.022V8.35H391.822ZM387.118 28.414V30.75H384.558V30.43C384.579 30.43 384.643 30.43 384.75 30.43C384.878 30.43 384.952 30.43 384.974 30.43C385.528 30.43 385.998 30.238 386.382 29.854C386.787 29.4487 387 28.9687 387.022 28.414H387.118ZM387.118 10.686H387.022C387 10.1313 386.787 9.662 386.382 9.278C385.998 8.87267 385.528 8.67 384.974 8.67C384.952 8.67 384.878 8.67 384.75 8.67C384.643 8.67 384.579 8.67 384.558 8.67V8.35H387.118V10.686ZM391.726 28.414H391.822C391.822 28.9687 392.024 29.4487 392.43 29.854C392.835 30.238 393.315 30.43 393.87 30.43C393.912 30.43 393.987 30.43 394.094 30.43C394.2 30.43 394.254 30.43 394.254 30.43V30.75H391.726V28.414ZM417.238 7.902C417.665 7.902 418.187 7.92333 418.806 7.966C419.446 8.00867 420.097 8.07267 420.758 8.158C421.441 8.222 422.027 8.29667 422.518 8.382C423.03 8.446 423.382 8.52067 423.574 8.606L423.19 12.926H422.87C422.87 11.8167 422.454 10.9313 421.622 10.27C420.811 9.58733 419.723 9.246 418.358 9.246C417.121 9.246 416.118 9.54467 415.35 10.142C414.603 10.7393 414.209 11.4647 414.166 12.318C414.145 12.958 414.347 13.5127 414.774 13.982C415.201 14.4513 415.745 14.8887 416.406 15.294L422.518 19.262C423.499 19.8167 424.235 20.542 424.726 21.438C425.238 22.334 425.462 23.3793 425.398 24.574C425.291 26.6647 424.491 28.2967 422.998 29.47C421.505 30.622 419.478 31.198 416.918 31.198C415.979 31.198 415.062 31.1127 414.166 30.942C413.291 30.7927 412.513 30.5793 411.83 30.302C411.147 30.0033 410.603 29.6513 410.198 29.246C410.027 28.7767 409.953 28.2113 409.974 27.55C409.995 26.8887 410.091 26.2167 410.262 25.534C410.454 24.8513 410.689 24.286 410.966 23.838H411.254C411.169 24.926 411.361 25.9393 411.83 26.878C412.321 27.7953 413.025 28.5313 413.942 29.086C414.881 29.6193 415.99 29.8753 417.27 29.854C418.678 29.8327 419.766 29.4807 420.534 28.798C421.302 28.094 421.686 27.2513 421.686 26.27C421.686 25.6087 421.483 25.0113 421.078 24.478C420.694 23.9447 420.054 23.4327 419.158 22.942L413.558 19.23C412.427 18.59 411.606 17.7687 411.094 16.766C410.582 15.7633 410.379 14.6753 410.486 13.502C410.593 12.3927 410.923 11.422 411.478 10.59C412.033 9.73667 412.79 9.07533 413.75 8.606C414.731 8.13667 415.894 7.902 417.238 7.902ZM423.606 8.222L423.542 8.894H419.766V8.222H423.606Z" fill="white"/>
<g clip-path="url(#clip0_438_787)">
<path d="M208.161 73.5429C207.263 74.8586 206.176 76.0357 204.937 77.0368C203.721 78.0408 202.389 78.8959 200.969 79.5837C198.084 80.922 194.923 81.557 191.745 81.4368C190.157 81.313 188.593 80.9809 187.092 80.449C185.633 79.9525 184.2 79.3831 182.798 78.7429C180.023 77.4858 177.337 76.1225 174.635 74.7837C169.363 72.0393 163.908 69.6635 158.308 67.6735C152.726 65.9583 146.981 64.8231 141.165 64.2858H141.427C139.329 64.4082 137.247 64.3674 135.125 64.6858C134.072 64.8164 133.01 64.9062 131.957 65.0694L128.774 65.6082L127.19 65.8858L125.598 66.2041L122.414 66.849C120.284 67.298 118.169 67.8123 116.039 68.2939C107.549 70.3266 99.0593 72.6531 90.5042 74.8245C81.9483 77.0711 73.2841 78.883 64.545 80.2531C62.3409 80.5225 60.1532 80.8735 57.9409 81.0694L54.6185 81.3388C53.5083 81.4204 52.4062 81.5429 51.2879 81.5347C46.8472 81.7132 42.3996 81.6014 37.9736 81.2L34.6511 80.8817L31.3858 80.3674L29.7532 80.1062C29.1981 80.0164 28.6593 79.8776 28.1205 79.7551L24.8552 79.0204C20.5275 77.8935 16.3647 76.2086 12.4715 74.0082L11.0266 73.1511L9.65521 72.1633C9.20623 71.8286 8.73275 71.5266 8.30826 71.1511L7.04296 70.0327L6.41439 69.4776L5.8348 68.8572L4.69194 67.6082C4.34909 67.1592 4.02255 66.6939 3.68785 66.2368C3.52459 66 3.35317 65.7796 3.19807 65.5429L2.7899 64.7919C1.56716 62.8256 0.898854 60.5652 0.855742 58.2501C0.81263 55.935 1.39631 53.6513 2.545 51.6408C3.65248 49.6402 5.13533 47.8719 6.91235 46.4327C8.66534 44.9611 10.6667 43.8138 12.8225 43.0449C13.9331 42.6589 15.0931 42.4335 16.2674 42.3755C16.847 42.3755 17.4103 42.3755 17.9899 42.3755C18.5695 42.3755 19.1328 42.5062 19.7042 42.5633C20.2756 42.6204 20.8307 42.8082 21.4021 42.9225C21.9736 43.0368 22.5124 43.2817 23.0348 43.4613C24.1251 43.9032 25.1561 44.479 26.1042 45.1756C27.0652 45.8695 27.9252 46.6938 28.6593 47.6245C29.4048 48.5588 30.0124 49.5952 30.4634 50.7021C30.6976 51.2745 30.878 51.8676 31.0021 52.4735L31.0838 52.9715C31.0838 53.1347 31.0838 53.2898 31.0838 53.4531V54.4164C30.924 55.6941 30.4714 56.9177 29.7613 57.9919C29.0254 59.0147 28.093 59.8806 27.0185 60.5388C25.9386 61.1735 24.7517 61.6051 23.5164 61.8123C22.2513 62.0021 20.9603 61.9214 19.7287 61.5756C18.4828 61.167 17.4235 60.3277 16.7409 59.2082L17.9654 58.1307C18.7405 58.6031 19.5609 58.9969 20.4144 59.3062C21.304 59.5512 22.2329 59.6205 23.1491 59.5102C24.0876 59.3574 24.9931 59.0455 25.8266 58.5878C26.6352 58.1056 27.3422 57.4706 27.9083 56.7184C28.4306 55.9628 28.7714 55.0968 28.9042 54.1878V53.5102C28.9042 53.396 28.9042 53.2817 28.9042 53.1674L28.8552 52.849C28.771 52.3754 28.6426 51.9108 28.4715 51.4613C28.1248 50.5165 27.6407 49.628 27.0348 48.8245C26.4376 48.0083 25.7286 47.2801 24.9287 46.6613C23.2967 45.3938 21.375 44.5522 19.3368 44.2123C18.8144 44.147 18.3083 44.0245 17.7777 43.9919C17.247 43.9592 16.7246 43.9184 16.2103 43.9184C15.1877 43.9405 14.1734 44.1081 13.1981 44.4164C9.13626 45.7387 5.70405 48.5112 3.55725 52.2041C2.49423 54.0255 1.93103 56.0953 1.9246 58.2041C2.01061 60.3111 2.63752 62.3606 3.745 64.1551L4.13684 64.849C4.28377 65.0694 4.44705 65.2735 4.60215 65.4939C4.92052 65.9184 5.22255 66.3592 5.55725 66.7755L6.64296 67.9429L7.1899 68.5306L7.80215 69.0612L9.01846 70.1062C9.42663 70.449 9.89193 70.7347 10.3328 71.0449L11.6552 71.9592L13.0674 72.7755C16.8783 74.8222 20.9476 76.3461 25.1654 77.3061L28.3572 77.9347C28.896 78.0327 29.4185 78.1633 29.9899 78.2368L31.6225 78.4409L34.8878 78.849L38.1532 79.0612C42.5027 79.332 46.8648 79.332 51.2144 79.0612C52.3001 79.0612 53.3776 78.8898 54.4797 78.7756L57.745 78.4327C59.9001 78.1878 62.047 77.7878 64.2021 77.4694C72.7973 75.9036 81.3043 73.8872 89.6878 71.4286C98.1205 69.0368 106.496 66.3756 114.994 63.9756C123.492 61.5756 132.251 59.5429 141.508 59.3143H141.623H141.769C144.865 59.6597 147.923 60.2882 150.904 61.1919C153.846 62.109 156.739 63.1744 159.574 64.3837C165.175 66.7183 170.628 69.3955 175.9 72.4C178.537 73.8449 181.141 75.3307 183.794 76.6286C186.447 77.9266 189.165 79.1266 191.9 79.3959C193.313 79.4793 194.731 79.4082 196.129 79.1837C197.531 78.9233 198.9 78.5071 200.21 77.9429C201.508 77.3474 202.73 76.5993 203.851 75.7143C204.963 74.8417 205.949 73.8198 206.782 72.6776L208.161 73.5429Z" fill="white"/>
<path d="M208.161 73.5429C207.263 74.8586 206.176 76.0357 204.937 77.0368C203.721 78.0408 202.389 78.8959 200.969 79.5837C198.084 80.922 194.923 81.557 191.745 81.4368C190.157 81.313 188.593 80.9809 187.092 80.449C185.633 79.9525 184.2 79.3831 182.798 78.7429C180.023 77.4858 177.337 76.1225 174.635 74.7837C169.363 72.0393 163.908 69.6635 158.308 67.6735C152.726 65.9583 146.981 64.8231 141.165 64.2858H141.427C139.329 64.4082 137.247 64.3674 135.125 64.6858C134.072 64.8164 133.01 64.9062 131.957 65.0694L128.774 65.6082L127.19 65.8858L125.598 66.2041L122.414 66.849C120.284 67.298 118.169 67.8123 116.039 68.2939C107.549 70.3266 99.0593 72.6531 90.5042 74.8245C81.9483 77.0711 73.2841 78.883 64.545 80.2531C62.3409 80.5225 60.1532 80.8735 57.9409 81.0694L54.6185 81.3388C53.5083 81.4204 52.4062 81.5429 51.2879 81.5347C46.8472 81.7132 42.3996 81.6014 37.9736 81.2L34.6511 80.8817L31.3858 80.3674L29.7532 80.1062C29.1981 80.0164 28.6593 79.8776 28.1205 79.7551L24.8552 79.0204C20.5275 77.8935 16.3647 76.2086 12.4715 74.0082L11.0266 73.1511L9.65521 72.1633C9.20623 71.8286 8.73275 71.5266 8.30826 71.1511L7.04296 70.0327L6.41439 69.4776L5.8348 68.8572L4.69194 67.6082C4.34909 67.1592 4.02255 66.6939 3.68785 66.2368C3.52459 66 3.35317 65.7796 3.19807 65.5429L2.7899 64.7919C1.56716 62.8256 0.898854 60.5652 0.855742 58.2501C0.81263 55.935 1.39631 53.6513 2.545 51.6408C3.65248 49.6402 5.13533 47.8719 6.91235 46.4327C8.66534 44.9611 10.6667 43.8138 12.8225 43.0449C13.9331 42.6589 15.0931 42.4335 16.2674 42.3755C16.847 42.3755 17.4103 42.3755 17.9899 42.3755C18.5695 42.3755 19.1328 42.5062 19.7042 42.5633C20.2756 42.6204 20.8307 42.8082 21.4021 42.9225C21.9736 43.0368 22.5124 43.2817 23.0348 43.4613C24.1251 43.9032 25.1561 44.479 26.1042 45.1756C27.0652 45.8695 27.9252 46.6938 28.6593 47.6245C29.4048 48.5588 30.0124 49.5952 30.4634 50.7021C30.6976 51.2745 30.878 51.8676 31.0021 52.4735L31.0838 52.9715C31.0838 53.1347 31.0838 53.2898 31.0838 53.4531V54.4164C30.924 55.6941 30.4714 56.9177 29.7613 57.9919C29.0254 59.0147 28.093 59.8806 27.0185 60.5388C25.9386 61.1735 24.7517 61.6051 23.5164 61.8123C22.2513 62.0021 20.9603 61.9214 19.7287 61.5756C18.4828 61.167 17.4235 60.3277 16.7409 59.2082L17.9654 58.1307C18.7405 58.6031 19.5609 58.9969 20.4144 59.3062C21.304 59.5512 22.2329 59.6205 23.1491 59.5102C24.0876 59.3574 24.9931 59.0455 25.8266 58.5878C26.6352 58.1056 27.3422 57.4706 27.9083 56.7184C28.4306 55.9628 28.7714 55.0968 28.9042 54.1878V53.5102C28.9042 53.396 28.9042 53.2817 28.9042 53.1674L28.8552 52.849C28.771 52.3754 28.6426 51.9108 28.4715 51.4613C28.1248 50.5165 27.6407 49.628 27.0348 48.8245C26.4376 48.0083 25.7286 47.2801 24.9287 46.6613C23.2967 45.3938 21.375 44.5522 19.3368 44.2123C18.8144 44.147 18.3083 44.0245 17.7777 43.9919C17.247 43.9592 16.7246 43.9184 16.2103 43.9184C15.1877 43.9405 14.1734 44.1081 13.1981 44.4164C9.13626 45.7387 5.70405 48.5112 3.55725 52.2041C2.49423 54.0255 1.93103 56.0953 1.9246 58.2041C2.01061 60.3111 2.63752 62.3606 3.745 64.1551L4.13684 64.849C4.28377 65.0694 4.44705 65.2735 4.60215 65.4939C4.92052 65.9184 5.22255 66.3592 5.55725 66.7755L6.64296 67.9429L7.1899 68.5306L7.80215 69.0612L9.01846 70.1062C9.42663 70.449 9.89193 70.7347 10.3328 71.0449L11.6552 71.9592L13.0674 72.7755C16.8783 74.8222 20.9476 76.3461 25.1654 77.3061L28.3572 77.9347C28.896 78.0327 29.4185 78.1633 29.9899 78.2368L31.6225 78.4409L34.8878 78.849L38.1532 79.0612C42.5027 79.332 46.8648 79.332 51.2144 79.0612C52.3001 79.0612 53.3776 78.8898 54.4797 78.7756L57.745 78.4327C59.9001 78.1878 62.047 77.7878 64.2021 77.4694C72.7973 75.9036 81.3043 73.8872 89.6878 71.4286C98.1205 69.0368 106.496 66.3756 114.994 63.9756C123.492 61.5756 132.251 59.5429 141.508 59.3143H141.623H141.769C144.865 59.6597 147.923 60.2882 150.904 61.1919C153.846 62.109 156.739 63.1744 159.574 64.3837C165.175 66.7183 170.628 69.3955 175.9 72.4C178.537 73.8449 181.141 75.3307 183.794 76.6286C186.447 77.9266 189.165 79.1266 191.9 79.3959C193.313 79.4793 194.731 79.4082 196.129 79.1837C197.531 78.9233 198.9 78.5071 200.21 77.9429C201.508 77.3474 202.73 76.5993 203.851 75.7143C204.963 74.8417 205.949 73.8198 206.782 72.6776L208.161 73.5429Z" fill="white"/>
<path d="M19.1076 60.6612C20.5413 60.6612 21.7036 59.499 21.7036 58.0653C21.7036 56.6316 20.5413 55.4694 19.1076 55.4694C17.674 55.4694 16.5117 56.6316 16.5117 58.0653C16.5117 59.499 17.674 60.6612 19.1076 60.6612Z" fill="white"/>
<path d="M206.137 74.5143C207.571 74.5143 208.733 73.352 208.733 71.9183C208.733 70.4847 207.571 69.3224 206.137 69.3224C204.703 69.3224 203.541 70.4847 203.541 71.9183C203.541 73.352 204.703 74.5143 206.137 74.5143Z" fill="white"/>
</g>
<g clip-path="url(#clip1_438_787)">
<path d="M219.839 73.5429C220.737 74.8586 221.824 76.0357 223.063 77.0368C224.279 78.0408 225.611 78.8959 227.031 79.5837C229.916 80.922 233.077 81.557 236.255 81.4368C237.843 81.313 239.407 80.9809 240.908 80.449C242.367 79.9525 243.8 79.3831 245.202 78.7429C247.977 77.4857 250.663 76.1225 253.365 74.7837C258.637 72.0393 264.092 69.6635 269.692 67.6735C275.274 65.9583 281.019 64.8231 286.835 64.2858H286.573C288.671 64.4082 290.753 64.3674 292.875 64.6858C293.928 64.8164 294.99 64.9062 296.043 65.0694L299.226 65.6082L300.81 65.8858L302.402 66.2041L305.586 66.849C307.716 67.298 309.831 67.8123 311.961 68.2939C320.451 70.3266 328.941 72.6531 337.496 74.8245C346.052 77.0711 354.716 78.883 363.455 80.2531C365.659 80.5225 367.847 80.8735 370.059 81.0694L373.382 81.3388C374.492 81.4204 375.594 81.5429 376.712 81.5347C381.153 81.7132 385.6 81.6014 390.026 81.2L393.349 80.8817L396.614 80.3674L398.247 80.1062C398.802 80.0164 399.341 79.8776 399.879 79.7551L403.145 79.0204C407.472 77.8935 411.635 76.2086 415.528 74.0082L416.973 73.1511L418.345 72.1633C418.794 71.8286 419.267 71.5266 419.692 71.1511L420.957 70.0327L421.586 69.4776L422.165 68.8572L423.308 67.6082C423.651 67.1592 423.977 66.6939 424.312 66.2368C424.475 66 424.647 65.7796 424.802 65.5429L425.21 64.7919C426.433 62.8256 427.101 60.5652 427.144 58.2501C427.187 55.935 426.604 53.6513 425.455 51.6408C424.348 49.6402 422.865 47.8719 421.088 46.4327C419.335 44.9611 417.333 43.8138 415.177 43.0449C414.067 42.6589 412.907 42.4335 411.733 42.3755C411.153 42.3755 410.59 42.3755 410.01 42.3755C409.431 42.3755 408.867 42.5062 408.296 42.5633C407.724 42.6204 407.169 42.8082 406.598 42.9225C406.026 43.0368 405.488 43.2817 404.965 43.4613C403.875 43.9032 402.844 44.479 401.896 45.1756C400.935 45.8695 400.075 46.6938 399.341 47.6245C398.595 48.5588 397.988 49.5952 397.537 50.7021C397.302 51.2745 397.122 51.8676 396.998 52.4735L396.916 52.9715C396.916 53.1347 396.916 53.2898 396.916 53.4531V54.4164C397.076 55.6941 397.529 56.9177 398.239 57.9919C398.975 59.0147 399.907 59.8806 400.982 60.5388C402.061 61.1735 403.248 61.6051 404.484 61.8123C405.749 62.0021 407.04 61.9214 408.271 61.5756C409.517 61.167 410.577 60.3277 411.259 59.2082L410.035 58.1307C409.259 58.6031 408.439 58.9969 407.586 59.3062C406.696 59.5512 405.767 59.6205 404.851 59.5102C403.912 59.3574 403.007 59.0455 402.173 58.5878C401.365 58.1056 400.658 57.4706 400.092 56.7184C399.569 55.9628 399.229 55.0968 399.096 54.1878V53.5102C399.096 53.396 399.096 53.2817 399.096 53.1674L399.145 52.849C399.229 52.3754 399.357 51.9108 399.528 51.4613C399.875 50.5165 400.359 49.628 400.965 48.8245C401.562 48.0083 402.271 47.2801 403.071 46.6613C404.703 45.3938 406.625 44.5522 408.663 44.2123C409.186 44.147 409.692 44.0245 410.222 43.9919C410.753 43.9592 411.275 43.9184 411.79 43.9184C412.812 43.9405 413.827 44.1081 414.802 44.4164C418.864 45.7387 422.296 48.5112 424.443 52.2041C425.506 54.0255 426.069 56.0953 426.075 58.2041C425.989 60.3111 425.362 62.3606 424.255 64.1551L423.863 64.849C423.716 65.0694 423.553 65.2735 423.398 65.4939C423.079 65.9184 422.777 66.3592 422.443 66.7755L421.357 67.9429L420.81 68.5306L420.198 69.0612L418.982 70.1062C418.573 70.449 418.108 70.7347 417.667 71.0449L416.345 71.9592L414.933 72.7755C411.122 74.8222 407.052 76.3461 402.835 77.3061L399.643 77.9347C399.104 78.0327 398.582 78.1633 398.01 78.2368L396.377 78.4409L393.112 78.849L389.847 79.0612C385.497 79.332 381.135 79.332 376.786 79.0612C375.7 79.0612 374.622 78.8898 373.52 78.7756L370.255 78.4327C368.1 78.1878 365.953 77.7878 363.798 77.4694C355.203 75.9036 346.696 73.8872 338.312 71.4286C329.88 69.0368 321.504 66.3756 313.006 63.9756C304.508 61.5756 295.749 59.5429 286.492 59.3143H286.377H286.231C283.135 59.6597 280.077 60.2882 277.096 61.1919C274.154 62.109 271.261 63.1744 268.426 64.3837C262.825 66.7183 257.372 69.3955 252.1 72.4C249.463 73.8449 246.859 75.3307 244.206 76.6286C241.553 77.9266 238.835 79.1266 236.1 79.3959C234.687 79.4793 233.269 79.4082 231.871 79.1837C230.469 78.9233 229.1 78.5071 227.79 77.9429C226.492 77.3474 225.27 76.5993 224.149 75.7143C223.037 74.8417 222.051 73.8198 221.218 72.6776L219.839 73.5429Z" fill="white"/>
<path d="M408.892 60.6612C407.459 60.6612 406.296 59.499 406.296 58.0653C406.296 56.6316 407.459 55.4694 408.892 55.4694C410.326 55.4694 411.488 56.6316 411.488 58.0653C411.488 59.499 410.326 60.6612 408.892 60.6612Z" fill="white"/>
<path d="M221.863 74.5143C220.429 74.5143 219.267 73.352 219.267 71.9183C219.267 70.4847 220.429 69.3224 221.863 69.3224C223.297 69.3224 224.459 70.4847 224.459 71.9183C224.459 73.352 223.297 74.5143 221.863 74.5143Z" fill="white"/>
</g>
<defs>
<clipPath id="clip0_438_787">
<rect width="210.612" height="40" fill="white" transform="translate(0.887695 42)"/>
</clipPath>
<clipPath id="clip1_438_787">
<rect width="210.612" height="40" fill="white" transform="matrix(-1 0 0 1 427.112 42)"/>
</clipPath>
</defs>
</svg>
