<svg width="35" height="36" viewBox="0 0 35 36" fill="none" xmlns="http://www.w3.org/2000/svg">
<rect y="0.278076" width="35" height="35" rx="17.5" fill="#063247"/>
<g clip-path="url(#clip0_139_252)">
<path fill-rule="evenodd" clip-rule="evenodd" d="M20.8844 19.2669C20.6981 19.1737 19.785 18.725 19.615 18.6625C19.445 18.6006 19.3213 18.57 19.1969 18.7562C19.0731 18.9412 18.7175 19.36 18.6094 19.4837C18.5006 19.6081 18.3925 19.6231 18.2069 19.5306C18.0213 19.4369 17.4225 19.2412 16.7131 18.6087C16.1613 18.1162 15.7881 17.5081 15.68 17.3219C15.5719 17.1362 15.6681 17.0356 15.7613 16.9431C15.845 16.86 15.9469 16.7262 16.04 16.6181C16.1331 16.5094 16.1638 16.4319 16.2256 16.3075C16.2881 16.1837 16.2569 16.0756 16.21 15.9825C16.1638 15.8894 15.7925 14.975 15.6375 14.6031C15.4869 14.2412 15.3338 14.2906 15.22 14.2844C15.1113 14.2794 14.9875 14.2781 14.8638 14.2781C14.74 14.2781 14.5388 14.3244 14.3688 14.5106C14.1981 14.6962 13.7188 15.1456 13.7188 16.06C13.7188 16.9737 14.3838 17.8569 14.4769 17.9812C14.57 18.105 15.7863 19.9812 17.6494 20.7856C18.0931 20.9769 18.4388 21.0912 18.7081 21.1762C19.1531 21.3181 19.5581 21.2981 19.8781 21.25C20.2344 21.1969 20.9769 20.8006 21.1319 20.3669C21.2863 19.9331 21.2863 19.5612 21.24 19.4837C21.1938 19.4062 21.07 19.36 20.8838 19.2669H20.8844ZM17.4956 23.8937H17.4931C16.3865 23.8939 15.3002 23.5965 14.3481 23.0325L14.1231 22.8987L11.7844 23.5125L12.4088 21.2325L12.2619 20.9987C11.6432 20.0139 11.3158 18.8742 11.3175 17.7112C11.3188 14.305 14.09 11.5337 17.4981 11.5337C19.1481 11.5337 20.6994 12.1775 21.8656 13.345C22.4409 13.9178 22.8968 14.5991 23.207 15.3493C23.5173 16.0995 23.6757 16.9038 23.6731 17.7156C23.6719 21.1219 20.9006 23.8937 17.4956 23.8937ZM22.7531 12.4581C22.0645 11.7649 21.2451 11.2153 20.3426 10.8411C19.44 10.4669 18.4721 10.2755 17.495 10.2781C13.3988 10.2781 10.0638 13.6125 10.0625 17.7106C10.0606 19.0148 10.4027 20.2965 11.0544 21.4262L10 25.2781L13.94 24.2444C15.0299 24.8382 16.2513 25.1493 17.4925 25.1494H17.4956C21.5919 25.1494 24.9269 21.815 24.9281 17.7162C24.9311 16.7395 24.7405 15.7719 24.3671 14.8694C23.9938 13.9668 23.4452 13.1473 22.7531 12.4581Z" fill="white"/>
</g>
<defs>
<clipPath id="clip0_139_252">
<rect width="15" height="15" fill="white" transform="translate(10 10.2781)"/>
</clipPath>
</defs>
</svg>
