<svg width="36" height="35" viewBox="0 0 36 35" fill="none" xmlns="http://www.w3.org/2000/svg">
<path d="M30.448 14C31.5517 14.6356 32.4466 15.5786 33.0236 16.714C33.6006 17.8494 33.8347 19.1282 33.6974 20.3944C33.5602 21.6606 33.0574 22.8595 32.2504 23.8449C31.4435 24.8302 30.3673 25.5595 29.153 25.9438C28.7238 27.8913 27.6424 29.6339 26.0878 30.883C24.5331 32.1321 22.5985 32.8129 20.6042 32.8125H17.323C17.0329 32.8125 16.7547 32.6973 16.5496 32.4922C16.3445 32.287 16.2292 32.0088 16.2292 31.7188C16.2292 31.4287 16.3445 31.1505 16.5496 30.9454C16.7547 30.7402 17.0329 30.625 17.323 30.625H20.6042C21.9618 30.6254 23.2862 30.2049 24.3948 29.4214C25.5035 28.6378 26.342 27.5299 26.7949 26.25H26.073C25.7829 26.25 25.5047 26.1348 25.2996 25.9297C25.0945 25.7245 24.9792 25.4463 24.9792 25.1563V14.2188C24.9792 13.9287 25.0945 13.6505 25.2996 13.4454C25.5047 13.2402 25.7829 13.125 26.073 13.125H27.1667C27.5211 13.125 27.8689 13.1534 28.2102 13.2081C27.9639 10.782 26.8259 8.53355 25.0165 6.89855C23.2072 5.26355 20.8554 4.35836 18.4167 4.35836C15.9781 4.35836 13.6263 5.26355 11.8169 6.89855C10.0076 8.53355 8.86954 10.782 8.6233 13.2081C8.96836 13.1529 9.31727 13.1251 9.66673 13.125H10.7605C11.0506 13.125 11.3288 13.2402 11.5339 13.4454C11.739 13.6505 11.8542 13.9287 11.8542 14.2188V25.1563C11.8542 25.4463 11.739 25.7245 11.5339 25.9297C11.3288 26.1348 11.0506 26.25 10.7605 26.25H9.66673C8.22076 26.2516 6.81473 25.7756 5.6671 24.8959C4.51948 24.0163 3.69452 22.7822 3.32039 21.3855C2.94627 19.9887 3.04392 18.5075 3.59819 17.172C4.15246 15.8365 5.1323 14.7214 6.38548 14C6.38548 10.8091 7.65306 7.74892 9.90936 5.49262C12.1657 3.23632 15.2258 1.96875 18.4167 1.96875C21.6076 1.96875 24.6678 3.23632 26.9241 5.49262C29.1804 7.74892 30.448 10.8091 30.448 14ZM9.66673 15.3125C8.50641 15.3125 7.39361 15.7734 6.57314 16.5939C5.75267 17.4144 5.29173 18.5272 5.29173 19.6875C5.29173 20.8478 5.75267 21.9606 6.57314 22.7811C7.39361 23.6016 8.50641 24.0625 9.66673 24.0625V15.3125ZM31.5417 19.6875C31.5417 18.5272 31.0808 17.4144 30.2603 16.5939C29.4399 15.7734 28.3271 15.3125 27.1667 15.3125V24.0625C28.3271 24.0625 29.4399 23.6016 30.2603 22.7811C31.0808 21.9606 31.5417 20.8478 31.5417 19.6875Z" fill="white"/>
</svg>
