<svg width="35" height="36" viewBox="0 0 35 36" fill="none" xmlns="http://www.w3.org/2000/svg">
<rect y="0.278076" width="35" height="35" rx="17.5" fill="#063247"/>
<path d="M22.8906 11.9187H12.1094C11.8501 11.9187 11.6406 12.1282 11.6406 12.3875V23.1687C11.6406 23.428 11.8501 23.6375 12.1094 23.6375H22.8906C23.1499 23.6375 23.3594 23.428 23.3594 23.1687V12.3875C23.3594 12.1282 23.1499 11.9187 22.8906 11.9187ZM22.4219 22.7H19.7251V19.0994H21.2485L21.4771 17.3313H19.7251V16.2019C19.7251 15.6892 19.8672 15.3406 20.6011 15.3406H21.5371V13.7585C21.3745 13.7366 20.8193 13.6882 20.1719 13.6882C18.8213 13.6882 17.897 14.5129 17.897 16.0261V17.3298H16.3706V19.0979H17.8984V22.7H12.5781V12.8562H22.4219V22.7Z" fill="white"/>
</svg>
