<svg width="26" height="27" viewBox="0 0 26 27" fill="none" xmlns="http://www.w3.org/2000/svg">
<path fill-rule="evenodd" clip-rule="evenodd" d="M8.087 1.65475C9.35775 1.59625 9.76292 1.58325 12.9999 1.58325C16.2369 1.58325 16.6421 1.59734 17.9118 1.65475C19.1814 1.71217 20.0481 1.91475 20.8064 2.20834C21.6005 2.50842 22.3209 2.9775 22.9167 3.58417C23.5234 4.17892 23.9914 4.89825 24.2904 5.69342C24.5851 6.45175 24.7866 7.31842 24.8451 8.58592C24.9036 9.85884 24.9166 10.264 24.9166 13.4999C24.9166 16.7369 24.9025 17.1421 24.8451 18.4128C24.7877 19.6803 24.5851 20.547 24.2904 21.3053C23.9914 22.1006 23.5226 22.8211 22.9167 23.4167C22.3209 24.0234 21.6005 24.4914 20.8064 24.7904C20.0481 25.0851 19.1814 25.2866 17.9139 25.3451C16.6421 25.4036 16.2369 25.4166 12.9999 25.4166C9.76292 25.4166 9.35775 25.4025 8.087 25.3451C6.8195 25.2877 5.95284 25.0851 5.1945 24.7904C4.39925 24.4914 3.67872 24.0226 3.08309 23.4167C2.47683 22.8216 2.00768 22.1015 1.70834 21.3064C1.41475 20.5481 1.21325 19.6814 1.15475 18.4139C1.09625 17.141 1.08325 16.7358 1.08325 13.4999C1.08325 10.2629 1.09734 9.85775 1.15475 8.58808C1.21217 7.31842 1.41475 6.45175 1.70834 5.69342C2.00812 4.89834 2.47763 4.17817 3.08417 3.58309C3.67896 2.97696 4.39876 2.50782 5.19342 2.20834C5.95175 1.91475 6.81842 1.71325 8.08592 1.65475H8.087ZM17.8153 3.79975C16.5587 3.74234 16.1817 3.73042 12.9999 3.73042C9.81817 3.73042 9.44117 3.74234 8.1845 3.79975C7.02208 3.85284 6.39158 4.04675 5.97125 4.21034C5.4155 4.427 5.01792 4.68375 4.60084 5.10084C4.20547 5.48547 3.9012 5.95372 3.71034 6.47125C3.54675 6.89158 3.35284 7.52208 3.29975 8.6845C3.24234 9.94117 3.23042 10.3182 3.23042 13.4999C3.23042 16.6817 3.24234 17.0587 3.29975 18.3153C3.35284 19.4778 3.54675 20.1083 3.71034 20.5286C3.901 21.0453 4.20542 21.5144 4.60084 21.899C4.98542 22.2944 5.4545 22.5988 5.97125 22.7895C6.39158 22.9531 7.02208 23.147 8.1845 23.2001C9.44117 23.2575 9.81708 23.2694 12.9999 23.2694C16.1828 23.2694 16.5587 23.2575 17.8153 23.2001C18.9778 23.147 19.6083 22.9531 20.0286 22.7895C20.5843 22.5728 20.9819 22.3161 21.399 21.899C21.7944 21.5144 22.0988 21.0453 22.2895 20.5286C22.4531 20.1083 22.647 19.4778 22.7001 18.3153C22.7575 17.0587 22.7694 16.6817 22.7694 13.4999C22.7694 10.3182 22.7575 9.94117 22.7001 8.6845C22.647 7.52208 22.4531 6.89158 22.2895 6.47125C22.0728 5.9155 21.8161 5.51792 21.399 5.10084C21.0143 4.7055 20.5461 4.40123 20.0286 4.21034C19.6083 4.04675 18.9778 3.85284 17.8153 3.79975ZM11.4778 17.1735C12.3279 17.5274 13.2744 17.5751 14.1558 17.3086C15.0371 17.0421 15.7986 16.4779 16.3102 15.7123C16.8217 14.9468 17.0516 14.0274 16.9606 13.1111C16.8696 12.1949 16.4633 11.3386 15.8112 10.6887C15.3954 10.2732 14.8927 9.95505 14.3393 9.75716C13.7858 9.55927 13.1954 9.48656 12.6105 9.54425C12.0255 9.60194 11.4607 9.78861 10.9565 10.0908C10.4524 10.393 10.0216 10.8032 9.695 11.2919C9.36843 11.7806 9.15429 12.3356 9.06798 12.917C8.98166 13.4984 9.02533 14.0917 9.19584 14.6542C9.36634 15.2167 9.65944 15.7344 10.054 16.17C10.4486 16.6057 10.9349 16.9484 11.4778 17.1735ZM8.66875 9.16875C9.23753 8.59997 9.91276 8.1488 10.6559 7.84098C11.399 7.53316 12.1955 7.37472 12.9999 7.37472C13.8043 7.37472 14.6008 7.53316 15.3439 7.84098C16.0871 8.1488 16.7623 8.59997 17.3311 9.16875C17.8999 9.73753 18.351 10.4128 18.6589 11.1559C18.9667 11.899 19.1251 12.6955 19.1251 13.4999C19.1251 14.3043 18.9667 15.1008 18.6589 15.8439C18.351 16.5871 17.8999 17.2623 17.3311 17.8311C16.1824 18.9798 14.6244 19.6251 12.9999 19.6251C11.3754 19.6251 9.81745 18.9798 8.66875 17.8311C7.52005 16.6824 6.87472 15.1244 6.87472 13.4999C6.87472 11.8754 7.52005 10.3174 8.66875 9.16875ZM20.4836 8.28692C20.6245 8.15396 20.7374 7.99407 20.8154 7.81672C20.8935 7.63937 20.9351 7.44817 20.938 7.25443C20.9408 7.06068 20.9047 6.86834 20.8319 6.6888C20.759 6.50925 20.6509 6.34614 20.5139 6.20913C20.3769 6.07212 20.2138 5.96399 20.0342 5.89115C19.8547 5.8183 19.6623 5.78223 19.4686 5.78505C19.2748 5.78787 19.0836 5.82954 18.9063 5.90759C18.7289 5.98564 18.569 6.09847 18.4361 6.23942C18.1775 6.51353 18.0359 6.87763 18.0414 7.25443C18.0469 7.63122 18.199 7.99104 18.4655 8.2575C18.732 8.52396 19.0918 8.67608 19.4686 8.68158C19.8454 8.68707 20.2095 8.5455 20.4836 8.28692Z" fill="white"/>
</svg>
