<svg width="35" height="36" viewBox="0 0 35 36" fill="none" xmlns="http://www.w3.org/2000/svg">
<rect y="0.778076" width="35" height="35" rx="17.5" fill="#063247"/>
<g clip-path="url(#clip0_139_253)">
<path fill-rule="evenodd" clip-rule="evenodd" d="M14.6656 11.4443C15.3988 11.4106 15.6325 11.4031 17.5 11.4031C19.3675 11.4031 19.6013 11.4112 20.3337 11.4443C21.0662 11.4775 21.5662 11.5943 22.0037 11.7637C22.4619 11.9368 22.8775 12.2075 23.2212 12.5575C23.5712 12.9006 23.8413 13.3156 24.0138 13.7743C24.1838 14.2118 24.3 14.7118 24.3337 15.4431C24.3675 16.1775 24.375 16.4112 24.375 18.2781C24.375 20.1456 24.3669 20.3793 24.3337 21.1125C24.3006 21.8437 24.1838 22.3437 24.0138 22.7812C23.8412 23.24 23.5708 23.6557 23.2212 23.9993C22.8775 24.3493 22.4619 24.6193 22.0037 24.7918C21.5662 24.9618 21.0662 25.0781 20.335 25.1118C19.6012 25.1456 19.3675 25.1531 17.5 25.1531C15.6325 25.1531 15.3988 25.145 14.6656 25.1118C13.9344 25.0787 13.4344 24.9618 12.9969 24.7918C12.5381 24.6193 12.1224 24.3489 11.7787 23.9993C11.429 23.656 11.1583 23.2405 10.9856 22.7818C10.8163 22.3443 10.7 21.8443 10.6662 21.1131C10.6325 20.3787 10.625 20.145 10.625 18.2781C10.625 16.4106 10.6331 16.1768 10.6662 15.4443C10.6994 14.7118 10.8163 14.2118 10.9856 13.7743C11.1586 13.3156 11.4294 12.9001 11.7794 12.5568C12.1225 12.2071 12.5378 11.9365 12.9963 11.7637C13.4338 11.5943 13.9338 11.4781 14.665 11.4443H14.6656ZM20.2781 12.6818C19.5531 12.6487 19.3356 12.6418 17.5 12.6418C15.6644 12.6418 15.4469 12.6487 14.7219 12.6818C14.0512 12.7125 13.6875 12.8243 13.445 12.9187C13.1244 13.0437 12.895 13.1918 12.6544 13.4325C12.4263 13.6544 12.2507 13.9245 12.1406 14.2231C12.0462 14.4656 11.9344 14.8293 11.9037 15.5C11.8706 16.225 11.8638 16.4425 11.8638 18.2781C11.8638 20.1137 11.8706 20.3312 11.9037 21.0562C11.9344 21.7268 12.0462 22.0906 12.1406 22.3331C12.2506 22.6312 12.4263 22.9018 12.6544 23.1237C12.8763 23.3518 13.1469 23.5275 13.445 23.6375C13.6875 23.7318 14.0512 23.8437 14.7219 23.8743C15.4469 23.9075 15.6638 23.9143 17.5 23.9143C19.3363 23.9143 19.5531 23.9075 20.2781 23.8743C20.9487 23.8437 21.3125 23.7318 21.555 23.6375C21.8756 23.5125 22.105 23.3643 22.3456 23.1237C22.5738 22.9018 22.7494 22.6312 22.8594 22.3331C22.9538 22.0906 23.0656 21.7268 23.0963 21.0562C23.1294 20.3312 23.1362 20.1137 23.1362 18.2781C23.1362 16.4425 23.1294 16.225 23.0963 15.5C23.0656 14.8293 22.9538 14.4656 22.8594 14.2231C22.7344 13.9025 22.5863 13.6731 22.3456 13.4325C22.1237 13.2044 21.8536 13.0288 21.555 12.9187C21.3125 12.8243 20.9487 12.7125 20.2781 12.6818ZM16.6219 20.3975C17.1123 20.6016 17.6584 20.6291 18.1668 20.4754C18.6753 20.3217 19.1146 19.9961 19.4098 19.5545C19.7049 19.1128 19.8375 18.5824 19.785 18.0538C19.7325 17.5252 19.4981 17.0312 19.1219 16.6562C18.882 16.4165 18.592 16.233 18.2727 16.1188C17.9534 16.0046 17.6128 15.9627 17.2753 15.996C16.9379 16.0292 16.612 16.1369 16.3211 16.3113C16.0303 16.4856 15.7817 16.7223 15.5933 17.0042C15.4049 17.2862 15.2814 17.6064 15.2316 17.9418C15.1818 18.2772 15.207 18.6195 15.3053 18.944C15.4037 19.2685 15.5728 19.5672 15.8005 19.8185C16.0281 20.0698 16.3086 20.2676 16.6219 20.3975ZM15.0012 15.7793C15.3294 15.4512 15.7189 15.1909 16.1477 15.0133C16.5764 14.8357 17.0359 14.7443 17.5 14.7443C17.9641 14.7443 18.4236 14.8357 18.8523 15.0133C19.281 15.1909 19.6706 15.4512 19.9987 15.7793C20.3269 16.1075 20.5872 16.497 20.7648 16.9258C20.9424 17.3545 21.0338 17.814 21.0338 18.2781C21.0338 18.7421 20.9424 19.2017 20.7648 19.6304C20.5872 20.0591 20.3269 20.4487 19.9987 20.7768C19.336 21.4395 18.4372 21.8118 17.5 21.8118C16.5628 21.8118 15.664 21.4395 15.0012 20.7768C14.3385 20.1141 13.9662 19.2153 13.9662 18.2781C13.9662 17.3409 14.3385 16.442 15.0012 15.7793ZM21.8175 15.2706C21.8988 15.1939 21.9639 15.1016 22.0089 14.9993C22.054 14.897 22.078 14.7867 22.0796 14.6749C22.0813 14.5631 22.0605 14.4522 22.0184 14.3486C21.9764 14.245 21.914 14.1509 21.835 14.0719C21.7559 13.9928 21.6618 13.9304 21.5582 13.8884C21.4547 13.8464 21.3437 13.8256 21.2319 13.8272C21.1201 13.8288 21.0098 13.8529 20.9075 13.8979C20.8052 13.9429 20.713 14.008 20.6362 14.0893C20.4871 14.2475 20.4054 14.4575 20.4086 14.6749C20.4117 14.8923 20.4995 15.0999 20.6532 15.2536C20.807 15.4073 21.0145 15.4951 21.2319 15.4983C21.4493 15.5014 21.6594 15.4198 21.8175 15.2706Z" fill="white"/>
</g>
<defs>
<clipPath id="clip0_139_253">
<rect width="15" height="15" fill="white" transform="translate(10 10.7781)"/>
</clipPath>
</defs>
</svg>
