<svg width="85" height="85" viewBox="0 0 85 85" fill="none" xmlns="http://www.w3.org/2000/svg">
<circle cx="42.5" cy="42.5" r="41.0641" fill="white" fill-opacity="0.8" stroke="white" stroke-width="2.52702"/>
<path fill-rule="evenodd" clip-rule="evenodd" d="M36.7697 28.6848C38.2518 28.6165 38.7243 28.6014 42.4997 28.6014C46.2751 28.6014 46.7476 28.6178 48.2284 28.6848C49.7093 28.7517 50.7201 28.988 51.6045 29.3304C52.5307 29.6804 53.3709 30.2275 54.0659 30.9351C54.7734 31.6288 55.3193 32.4677 55.668 33.3951C56.0117 34.2796 56.2467 35.2904 56.3149 36.7687C56.3831 38.2533 56.3983 38.7259 56.3983 42.5C56.3983 46.2754 56.3819 46.7479 56.3149 48.23C56.2479 49.7083 56.0117 50.7191 55.668 51.6036C55.3193 52.5311 54.7725 53.3715 54.0659 54.0662C53.3709 54.7737 52.5307 55.3196 51.6045 55.6683C50.7201 56.012 49.7093 56.247 48.231 56.3152C46.7476 56.3834 46.2751 56.3986 42.4997 56.3986C38.7243 56.3986 38.2518 56.3822 36.7697 56.3152C35.2914 56.2483 34.2806 56.012 33.3961 55.6683C32.4686 55.3195 31.6282 54.7728 30.9335 54.0662C30.2264 53.3721 29.6792 52.5321 29.3301 51.6049C28.9877 50.7204 28.7527 49.7096 28.6845 48.2313C28.6162 46.7467 28.6011 46.2741 28.6011 42.5C28.6011 38.7246 28.6175 38.2521 28.6845 36.7712C28.7514 35.2904 28.9877 34.2796 29.3301 33.3951C29.6798 32.4678 30.2274 31.6279 30.9348 30.9338C31.6285 30.2269 32.468 29.6797 33.3948 29.3304C34.2793 28.988 35.2901 28.753 36.7684 28.6848H36.7697ZM48.116 31.1865C46.6503 31.1196 46.2106 31.1057 42.4997 31.1057C38.7888 31.1057 38.3491 31.1196 36.8834 31.1865C35.5276 31.2484 34.7923 31.4746 34.302 31.6654C33.6539 31.9181 33.1901 32.2176 32.7037 32.704C32.2426 33.1526 31.8877 33.6987 31.6651 34.3023C31.4743 34.7926 31.2481 35.5279 31.1862 36.8837C31.1193 38.3494 31.1054 38.7891 31.1054 42.5C31.1054 46.2109 31.1193 46.6506 31.1862 48.1163C31.2481 49.472 31.4743 50.2074 31.6651 50.6977C31.8875 51.3004 32.2425 51.8474 32.7037 52.296C33.1522 52.7572 33.6993 53.1122 34.302 53.3346C34.7923 53.5254 35.5276 53.7516 36.8834 53.8135C38.3491 53.8804 38.7875 53.8943 42.4997 53.8943C46.2119 53.8943 46.6503 53.8804 48.116 53.8135C49.4717 53.7516 50.2071 53.5254 50.6973 53.3346C51.3455 53.0819 51.8092 52.7824 52.2957 52.296C52.7569 51.8474 53.1119 51.3004 53.3343 50.6977C53.5251 50.2074 53.7512 49.472 53.8132 48.1163C53.8801 46.6506 53.894 46.2109 53.894 42.5C53.894 38.7891 53.8801 38.3494 53.8132 36.8837C53.7512 35.5279 53.5251 34.7926 53.3343 34.3023C53.0816 33.6542 52.7821 33.1905 52.2957 32.704C51.847 32.2429 51.3009 31.888 50.6973 31.6654C50.2071 31.4746 49.4717 31.2484 48.116 31.1865ZM40.7245 46.7846C41.7159 47.1973 42.8198 47.253 43.8478 46.9422C44.8757 46.6313 45.7638 45.9733 46.3605 45.0804C46.9571 44.1875 47.2253 43.1152 47.1191 42.0465C47.013 40.9779 46.5391 39.9793 45.7785 39.2212C45.2936 38.7366 44.7073 38.3656 44.0618 38.1348C43.4163 37.904 42.7277 37.8191 42.0454 37.8864C41.3632 37.9537 40.7044 38.1714 40.1165 38.5239C39.5285 38.8764 39.026 39.3548 38.6451 39.9248C38.2642 40.4948 38.0145 41.1421 37.9138 41.8202C37.8131 42.4983 37.8641 43.1902 38.0629 43.8463C38.2618 44.5023 38.6036 45.1061 39.0638 45.6142C39.5241 46.1223 40.0912 46.522 40.7245 46.7846ZM37.4482 37.4485C38.1115 36.7851 38.8991 36.2589 39.7658 35.8999C40.6326 35.5409 41.5615 35.3561 42.4997 35.3561C43.4378 35.3561 44.3668 35.5409 45.2335 35.8999C46.1003 36.2589 46.8878 36.7851 47.5512 37.4485C48.2146 38.1119 48.7408 38.8994 49.0998 39.7661C49.4588 40.6329 49.6436 41.5618 49.6436 42.5C49.6436 43.4382 49.4588 44.3671 49.0998 45.2339C48.7408 46.1006 48.2146 46.8881 47.5512 47.5515C46.2115 48.8913 44.3944 49.6439 42.4997 49.6439C40.605 49.6439 38.7879 48.8913 37.4482 47.5515C36.1084 46.2118 35.3558 44.3947 35.3558 42.5C35.3558 40.6053 36.1084 38.7882 37.4482 37.4485ZM51.228 36.42C51.3924 36.2649 51.524 36.0784 51.615 35.8716C51.7061 35.6647 51.7547 35.4417 51.758 35.2158C51.7612 34.9898 51.7192 34.7655 51.6342 34.5561C51.5493 34.3467 51.4231 34.1564 51.2633 33.9966C51.1035 33.8368 50.9133 33.7107 50.7039 33.6258C50.4945 33.5408 50.2702 33.4987 50.0442 33.502C49.8182 33.5053 49.5952 33.5539 49.3884 33.6449C49.1815 33.736 48.9951 33.8676 48.84 34.032C48.5384 34.3517 48.3733 34.7763 48.3797 35.2158C48.3861 35.6552 48.5635 36.0749 48.8743 36.3857C49.1851 36.6965 49.6047 36.8739 50.0442 36.8803C50.4837 36.8867 50.9083 36.7216 51.228 36.42Z" fill="#063247"/>
</svg>
