<svg width="30" height="31" viewBox="0 0 30 31" fill="none" xmlns="http://www.w3.org/2000/svg">
<path d="M23.4375 12.6875C23.4375 10.4497 22.5485 8.30362 20.9662 6.72129C19.3839 5.13895 17.2378 4.25 15 4.25C12.7622 4.25 10.6161 5.13895 9.03379 6.72129C7.45145 8.30362 6.5625 10.4497 6.5625 12.6875C6.5625 16.1488 9.33187 20.66 15 26.0637C20.6681 20.66 23.4375 16.1488 23.4375 12.6875ZM15 28.625C8.12437 22.3756 4.6875 17.0619 4.6875 12.6875C4.6875 9.95246 5.77399 7.32943 7.70796 5.39546C9.64193 3.46149 12.265 2.375 15 2.375C17.735 2.375 20.3581 3.46149 22.292 5.39546C24.226 7.32943 25.3125 9.95246 25.3125 12.6875C25.3125 17.0619 21.8756 22.3756 15 28.625Z" fill="black"/>
<path d="M15 13.625C15.4973 13.625 15.9742 13.4275 16.3258 13.0758C16.6775 12.7242 16.875 12.2473 16.875 11.75C16.875 11.2527 16.6775 10.7758 16.3258 10.4242C15.9742 10.0725 15.4973 9.875 15 9.875C14.5027 9.875 14.0258 10.0725 13.6742 10.4242C13.3225 10.7758 13.125 11.2527 13.125 11.75C13.125 12.2473 13.3225 12.7242 13.6742 13.0758C14.0258 13.4275 14.5027 13.625 15 13.625ZM15 15.5C14.0054 15.5 13.0516 15.1049 12.3483 14.4017C11.6451 13.6984 11.25 12.7446 11.25 11.75C11.25 10.7554 11.6451 9.80161 12.3483 9.09835C13.0516 8.39509 14.0054 8 15 8C15.9946 8 16.9484 8.39509 17.6516 9.09835C18.3549 9.80161 18.75 10.7554 18.75 11.75C18.75 12.7446 18.3549 13.6984 17.6516 14.4017C16.9484 15.1049 15.9946 15.5 15 15.5ZM25.125 21.125L28.125 28.625H19.6875V26.75H10.3125V28.625H1.875L4.875 21.125H25.125ZM23.1056 21.125H6.89437L4.64438 26.75H25.3556L23.1056 21.125Z" fill="black"/>
</svg>
