<svg width="85" height="85" viewBox="0 0 85 85" fill="none" xmlns="http://www.w3.org/2000/svg">
<circle cx="42.4253" cy="42.5" r="41.0641" fill="white" fill-opacity="0.8" stroke="white" stroke-width="2.52702"/>
<path d="M42.4251 31.0652C35.4506 31.0652 29.79 36.7258 29.79 43.7003C29.79 50.6749 35.4506 56.3354 42.4251 56.3354H48.7427V53.8084H42.4251C36.9415 53.8084 32.3171 49.184 32.3171 43.7003C32.3171 38.2167 36.9415 33.5923 42.4251 33.5923C47.9088 33.5923 52.5332 38.2167 52.5332 43.7003V45.5072C52.5332 46.5053 51.6361 47.4909 50.638 47.4909C49.6398 47.4909 48.7427 46.5053 48.7427 45.5072V43.7003C48.7427 40.213 45.9124 37.3828 42.4251 37.3828C38.9379 37.3828 36.1076 40.213 36.1076 43.7003C36.1076 47.1876 38.9379 50.0179 42.4251 50.0179C44.1688 50.0179 45.7608 49.3103 46.898 48.1605C47.7192 49.285 49.1344 50.0179 50.638 50.0179C53.1271 50.0179 55.0602 47.9963 55.0602 45.5072V43.7003C55.0602 36.7258 49.3997 31.0652 42.4251 31.0652ZM42.4251 47.4909C40.3277 47.4909 38.6346 45.7978 38.6346 43.7003C38.6346 41.6029 40.3277 39.9098 42.4251 39.9098C44.5226 39.9098 46.2157 41.6029 46.2157 43.7003C46.2157 45.7978 44.5226 47.4909 42.4251 47.4909Z" fill="#063247"/>
</svg>
