<svg width="100" height="100" viewBox="0 0 100 100" fill="none" xmlns="http://www.w3.org/2000/svg">
<rect width="100" height="100" rx="50" transform="matrix(-1 0 0 1 100 0)" fill="white"/>
<path d="M46.9496 61.6667C47.1986 61.6676 47.4446 61.6126 47.6695 61.5059C47.8945 61.3992 48.0927 61.2434 48.2496 61.0501L56.2996 51.0501C56.5447 50.7518 56.6787 50.3778 56.6787 49.9917C56.6787 49.6057 56.5447 49.2316 56.2996 48.9334L47.9662 38.9334C47.6833 38.593 47.2768 38.379 46.8361 38.3384C46.3954 38.2977 45.9566 38.4338 45.6162 38.7167C45.2759 38.9996 45.0618 39.4061 45.0212 39.8468C44.9806 40.2876 45.1167 40.7264 45.3996 41.0667L52.8496 50.0001L45.6496 58.9334C45.4458 59.178 45.3163 59.4759 45.2765 59.7918C45.2367 60.1078 45.2882 60.4285 45.425 60.716C45.5617 61.0036 45.778 61.2459 46.0482 61.4144C46.3184 61.5829 46.6312 61.6704 46.9496 61.6667Z" fill="#07374E"/>
</svg>
