<svg id="Ñëîé_2" data-name="Ñëîé 2" xmlns="http://www.w3.org/2000/svg" xmlns:xlink="http://www.w3.org/1999/xlink" viewBox="0 0 1200 1200"><defs><style>.cls-1{fill:url(#Áåçûìÿííûé_ãðàäèåíò_31);}</style><linearGradient id="Áåçûìÿííûé_ãðàäèåíò_31" y1="600" x2="1200" y2="600" gradientUnits="userSpaceOnUse"><stop offset="0" stop-color="#be965d"/><stop offset="0.28" stop-color="#976f40"/><stop offset="0.43" stop-color="#c99b61"/><stop offset="0.56" stop-color="#f0be7b"/><stop offset="0.63" stop-color="#ffcb85"/><stop offset="0.71" stop-color="#eebc79"/><stop offset="0.87" stop-color="#c0935b"/><stop offset="1" stop-color="#976f40"/></linearGradient></defs><path class="cls-1" d="M1200,0h-1.41L1150,48.59,1101.41,0h-2.82L1050,48.59,1001.41,0h-2.82L950,48.59,901.41,0h-2.82L850,48.59,801.41,0h-2.82L750,48.59,701.41,0h-2.82L650,48.59,601.41,0h-2.82L550,48.59,501.41,0h-2.82L450,48.59,401.41,0h-2.82L350,48.59,301.41,0h-2.82L250,48.59,201.41,0h-2.82L150,48.59,101.41,0H98.59L50,48.59,1.41,0H0V1.41L48.59,50,0,98.59V201.41L48.59,250,0,298.59V401.41L48.59,450,0,498.59V601.41L48.59,650,0,698.59V801.41L48.59,850,0,898.59v102.82L48.59,1050,0,1098.59V1200H1.41l-.41-.41v-97.18L48.59,1150l50,50h2.82l50-50L199,1102.41v97.18l-.41.41h2.82l-.41-.41v-97.18L248.59,1150l50,50h2.82l50-50L399,1102.41v97.18l-.41.41h2.82l-.41-.41v-97.18L448.59,1150l50,50h2.82l50-50L599,1102.41v97.18l-.41.41h2.82l-.41-.41v-97.18L648.59,1150l50,50h2.82l50-50L799,1102.41v97.18l-.41.41h2.82l-.41-.41v-97.18L848.59,1150l50,50h2.82l50-50L999,1102.41v97.18l-.41.41h2.82l-.41-.41v-97.18l47.59,47.59,50,50h2.82l50-50,47.59-47.59v97.18l-.41.41H1200V1098.59L1151.41,1050l48.59-48.59V898.59L1151.41,850,1200,801.41V698.59L1151.41,650,1200,601.41V498.59L1151.41,450,1200,401.41V298.59L1151.41,250,1200,201.41V98.59L1151.41,50,1200,1.41ZM1050,848.59l-49-49V702.41L1048.59,750l50,50Zm49-46.18v97.18l-49,49L1001.41,900l50-50ZM101.41,800l50-50L199,702.41v97.18l-49,49Zm97.18,100L150,948.59l-49-49V802.41L148.59,850ZM901.41,600l50-50L999,502.41v97.18l-49,49Zm97.18,100L950,748.59l-49-49V602.41L948.59,650ZM999,399.59l-49,49L901.41,400l50-50L999,302.41Zm1,1.82L1048.59,450,1000,498.59,951.41,450ZM948.59,450l50,50L950,548.59l-49-49V402.41Zm0,100L900,598.59,851.41,550,900,501.41ZM851.41,650,899,602.41v97.18l-49,49L801.41,700ZM850,648.59l-49-49V502.41L848.59,550l50,50Zm49-149-49,49L801.41,500l50-50L899,402.41Zm-49-51-49-49V302.41L848.59,350l50,50ZM848.59,450,800,498.59,751.41,450,800,401.41ZM701.41,600l50-50L799,502.41v97.18l-49,49Zm97.18,100L750,748.59l-49-49V602.41L748.59,650ZM799,399.59l-49,49L701.41,400l50-50L799,302.41ZM748.59,450l50,50L750,548.59l-49-49V402.41Zm0,100L700,598.59,651.41,550,700,501.41ZM651.41,650,699,602.41v97.18l-49,49L601.41,700ZM650,648.59l-49-49V502.41L648.59,550l50,50Zm49-149-49,49L601.41,500l50-50L699,402.41Zm-49-51-49-49V302.41L648.59,350l50,50ZM648.59,450,600,498.59,551.41,450,600,401.41ZM501.41,600l50-50L599,502.41v97.18l-49,49Zm97.18,100L550,748.59l-49-49V602.41L548.59,650ZM599,399.59l-49,49L501.41,400l50-50L599,302.41ZM548.59,450l50,50L550,548.59l-49-49V402.41Zm0,100L500,598.59,451.41,550,500,501.41ZM451.41,650,499,602.41v97.18l-49,49L401.41,700ZM450,648.59l-49-49V502.41L448.59,550l50,50Zm49-149-49,49L401.41,500l50-50L499,402.41Zm-49-51-49-49V302.41L448.59,350l50,50ZM448.59,450,400,498.59,351.41,450,400,401.41ZM301.41,600l50-50L399,502.41v97.18l-49,49Zm97.18,100L350,748.59l-49-49V602.41L348.59,650ZM399,399.59l-49,49L301.41,400l50-50L399,302.41ZM348.59,450l50,50L350,548.59l-49-49V402.41Zm0,100L300,598.59,251.41,550,300,501.41ZM251.41,650,299,602.41v97.18l-49,49L201.41,700ZM250,648.59l-49-49V502.41L248.59,550l50,50Zm49-149-49,49L201.41,500l50-50L299,402.41Zm-49-51-49-49V302.41L248.59,350l50,50ZM248.59,450,200,498.59,151.41,450,200,401.41ZM199,399.59l-49,49L101.41,400l50-50L199,302.41ZM148.59,450l50,50L150,548.59l-49-49V402.41Zm2.82,100L199,502.41v97.18l-49,49L101.41,600Zm-2.82,100,50,50L150,748.59l-49-49V602.41Zm2.82,0L200,601.41,248.59,650,200,698.59ZM201,702.41,248.59,750l50,50L250,848.59l-49-49ZM251.41,850,299,802.41v97.18l-49,49L201.41,900Zm0-100L300,701.41,348.59,750,300,798.59ZM301,802.41,348.59,850l50,50L350,948.59l-49-49Zm.41-2.41,50-50L399,702.41v97.18l-49,49Zm50-150L400,601.41,448.59,650,400,698.59ZM401,702.41,448.59,750l50,50L450,848.59l-49-49ZM451.41,850,499,802.41v97.18l-49,49L401.41,900Zm0-100L500,701.41,548.59,750,500,798.59ZM501,802.41,548.59,850l50,50L550,948.59l-49-49Zm.41-2.41,50-50L599,702.41v97.18l-49,49Zm50-150L600,601.41,648.59,650,600,698.59ZM601,702.41,648.59,750l50,50L650,848.59l-49-49ZM651.41,850,699,802.41v97.18l-49,49L601.41,900Zm0-100L700,701.41,748.59,750,700,798.59ZM701,802.41,748.59,850l50,50L750,948.59l-49-49Zm.41-2.41,50-50L799,702.41v97.18l-49,49Zm50-150L800,601.41,848.59,650,800,698.59ZM801,702.41,848.59,750l50,50L850,848.59l-49-49ZM851.41,850,899,802.41v97.18l-49,49L801.41,900Zm0-100L900,701.41,948.59,750,900,798.59ZM901,802.41,948.59,850l50,50L950,948.59l-49-49Zm.41-2.41,50-50L999,702.41v97.18l-49,49Zm50-150L1000,601.41,1048.59,650,1000,698.59Zm50,50,50-50L1099,602.41v97.18l-49,49ZM1050,648.59l-49-49V502.41L1048.59,550l50,50ZM1001.41,500l50-50L1099,402.41v97.18l-49,49ZM1050,448.59l-49-49V302.41L1048.59,350l50,50ZM1001.41,300l50-50L1099,202.41v97.18l-49,49ZM1050,248.59l-49-49V102.41L1048.59,150l50,50Zm-1.41,1.41L1000,298.59,951.41,250,1000,201.41ZM999,199.59l-49,49L901.41,200l50-50L999,102.41ZM948.59,250l50,50L950,348.59l-49-49V202.41Zm0,100L900,398.59,851.41,350,900,301.41ZM899,299.59l-49,49L801.41,300l50-50L899,202.41Zm-49-51-49-49V102.41L848.59,150l50,50ZM848.59,250,800,298.59,751.41,250,800,201.41ZM799,199.59l-49,49L701.41,200l50-50L799,102.41ZM748.59,250l50,50L750,348.59l-49-49V202.41Zm0,100L700,398.59,651.41,350,700,301.41ZM699,299.59l-49,49L601.41,300l50-50L699,202.41Zm-49-51-49-49V102.41L648.59,150l50,50ZM648.59,250,600,298.59,551.41,250,600,201.41ZM599,199.59l-49,49L501.41,200l50-50L599,102.41ZM548.59,250l50,50L550,348.59l-49-49V202.41Zm0,100L500,398.59,451.41,350,500,301.41ZM499,299.59l-49,49L401.41,300l50-50L499,202.41Zm-49-51-49-49V102.41L448.59,150l50,50ZM448.59,250,400,298.59,351.41,250,400,201.41ZM399,199.59l-49,49L301.41,200l50-50L399,102.41ZM348.59,250l50,50L350,348.59l-49-49V202.41Zm0,100L300,398.59,251.41,350,300,301.41ZM299,299.59l-49,49L201.41,300l50-50L299,202.41Zm-49-51-49-49V102.41L248.59,150l50,50ZM248.59,250,200,298.59,151.41,250,200,201.41ZM199,199.59l-49,49L101.41,200l50-50L199,102.41ZM148.59,250l50,50L150,348.59l-49-49V202.41Zm0,100L100,398.59,51.41,350,100,301.41Zm0,200L100,598.59,51.41,550,100,501.41Zm0,200L100,798.59,51.41,750,100,701.41Zm0,200L100,998.59,51.41,950,100,901.41Zm2.82,0L199,902.41v97.18l-49,49L101.41,1000Zm0-100L200,801.41,248.59,850,200,898.59ZM201,902.41,248.59,950l50,50L250,1048.59l-49-49ZM251.41,950,300,901.41,348.59,950,300,998.59Zm100,0L399,902.41v97.18l-49,49L301.41,1000Zm0-100L400,801.41,448.59,850,400,898.59ZM401,902.41,448.59,950l50,50L450,1048.59l-49-49ZM451.41,950,500,901.41,548.59,950,500,998.59Zm100,0L599,902.41v97.18l-49,49L501.41,1000Zm0-100L600,801.41,648.59,850,600,898.59ZM601,902.41,648.59,950l50,50L650,1048.59l-49-49ZM651.41,950,700,901.41,748.59,950,700,998.59Zm100,0L799,902.41v97.18l-49,49L701.41,1000Zm0-100L800,801.41,848.59,850,800,898.59ZM801,902.41,848.59,950l50,50L850,1048.59l-49-49ZM851.41,950,900,901.41,948.59,950,900,998.59Zm100,0L999,902.41v97.18l-49,49L901.41,1000Zm0-100L1000,801.41,1048.59,850,1000,898.59ZM1001,902.41,1048.59,950l50,50L1050,1048.59l-49-49ZM1051.41,950,1100,901.41,1148.59,950,1100,998.59Zm0-200L1100,701.41,1148.59,750,1100,798.59Zm0-200L1100,501.41,1148.59,550,1100,598.59Zm0-200L1100,301.41,1148.59,350,1100,398.59Zm0-200L1100,101.41,1148.59,150,1100,198.59Zm0-100L1099,2.41V99.59l-49,49L1001.41,100ZM1000,1.41,1048.59,50,1000,98.59,951.41,50Zm-99,1L948.59,50l50,50L950,148.59l-49-49ZM948.59,150,900,198.59,851.41,150,900,101.41ZM851.41,50,899,2.41V99.59l-49,49L801.41,100ZM800,1.41,848.59,50,800,98.59,751.41,50Zm-99,1L748.59,50l50,50L750,148.59l-49-49ZM748.59,150,700,198.59,651.41,150,700,101.41ZM651.41,50,699,2.41V99.59l-49,49L601.41,100ZM600,1.41,648.59,50,600,98.59,551.41,50Zm-99,1L548.59,50l50,50L550,148.59l-49-49ZM548.59,150,500,198.59,451.41,150,500,101.41ZM451.41,50,499,2.41V99.59l-49,49L401.41,100ZM400,1.41,448.59,50,400,98.59,351.41,50Zm-99,1L348.59,50l50,50L350,148.59l-49-49ZM348.59,150,300,198.59,251.41,150,300,101.41ZM251.41,50,299,2.41V99.59l-49,49L201.41,100ZM200,1.41,248.59,50,200,98.59,151.41,50Zm-99,1L148.59,50l50,50L150,148.59l-49-49ZM148.59,150,100,198.59,51.41,150,100,101.41ZM51.41,50,99,2.41V99.59l-49,49L1.41,100ZM1,199.59V102.41L48.59,150l50,50L50,248.59ZM51.41,250,99,202.41v97.18l-49,49L1.41,300ZM1,399.59V302.41L48.59,350l50,50L50,448.59ZM51.41,450,99,402.41v97.18l-49,49L1.41,500ZM1,599.59V502.41L48.59,550l50,50L50,648.59ZM51.41,650,99,602.41v97.18l-49,49L1.41,700ZM1,799.59V702.41L48.59,750l50,50L50,848.59ZM51.41,850,99,802.41v97.18l-49,49L1.41,900ZM1,999.59V902.41L48.59,950l50,50L50,1048.59ZM1.41,1100l50-50L99,1002.41v97.18l-49,49ZM100,1198.59,51.41,1150,100,1101.41,148.59,1150Zm50-50-49-49v-97.18L148.59,1050l50,50Zm50-50L151.41,1050,200,1001.41,248.59,1050Zm1.41,1.41,50-50L299,1002.41v97.18l-49,49ZM300,1198.59,251.41,1150,300,1101.41,348.59,1150Zm50-50-49-49v-97.18L348.59,1050l50,50Zm50-50L351.41,1050,400,1001.41,448.59,1050Zm1.41,1.41,50-50L499,1002.41v97.18l-49,49ZM500,1198.59,451.41,1150,500,1101.41,548.59,1150Zm50-50-49-49v-97.18L548.59,1050l50,50Zm50-50L551.41,1050,600,1001.41,648.59,1050Zm1.41,1.41,50-50L699,1002.41v97.18l-49,49ZM700,1198.59,651.41,1150,700,1101.41,748.59,1150Zm50-50-49-49v-97.18L748.59,1050l50,50Zm50-50L751.41,1050,800,1001.41,848.59,1050Zm1.41,1.41,50-50L899,1002.41v97.18l-49,49ZM900,1198.59,851.41,1150,900,1101.41,948.59,1150Zm50-50-49-49v-97.18L948.59,1050l50,50Zm50-50L951.41,1050l48.59-48.59,48.59,48.59Zm1.41,1.41,50-50,47.59-47.59v97.18l-49,49Zm98.59,98.59L1051.41,1150l48.59-48.59,48.59,48.59Zm98.59-98.59L1150,1148.59l-49-49v-97.18l47.59,47.59Zm.41-100.41-49,49L1101.41,1000l50-50L1199,902.41Zm-.41-99.59L1150,948.59l-49-49V802.41L1148.59,850Zm.41-100.41-49,49L1101.41,800l50-50L1199,702.41Zm-.41-99.59L1150,748.59l-49-49V602.41L1148.59,650Zm.41-100.41-49,49L1101.41,600l50-50L1199,502.41Zm-.41-99.59L1150,548.59l-49-49V402.41L1148.59,450Zm.41-100.41-49,49L1101.41,400l50-50L1199,302.41Zm-.41-99.59L1150,348.59l-49-49V202.41L1148.59,250Zm.41-100.41-49,49L1101.41,200l50-50L1199,102.41Zm-.41-99.59L1150,148.59l-49-49V2.41L1148.59,50Z"/></svg>