<svg width="100" height="100" viewBox="0 0 100 100" fill="none" xmlns="http://www.w3.org/2000/svg">
<rect width="100" height="100" rx="50" fill="white"/>
<path d="M53.0504 61.6667C52.8014 61.6676 52.5554 61.6126 52.3305 61.5059C52.1055 61.3992 51.9073 61.2434 51.7504 61.0501L43.7004 51.0501C43.4553 50.7518 43.3213 50.3778 43.3213 49.9917C43.3213 49.6057 43.4553 49.2316 43.7004 48.9334L52.0338 38.9334C52.3167 38.593 52.7232 38.379 53.1639 38.3384C53.6046 38.2977 54.0434 38.4338 54.3838 38.7167C54.7241 38.9996 54.9382 39.4061 54.9788 39.8468C55.0194 40.2876 54.8833 40.7264 54.6004 41.0667L47.1504 50.0001L54.3504 58.9334C54.5542 59.178 54.6837 59.4759 54.7235 59.7918C54.7633 60.1078 54.7118 60.4285 54.575 60.716C54.4383 61.0036 54.222 61.2459 53.9518 61.4144C53.6816 61.5829 53.3688 61.6704 53.0504 61.6667Z" fill="#07374E"/>
</svg>
