<svg width="85" height="85" viewBox="0 0 85 85" fill="none" xmlns="http://www.w3.org/2000/svg">
<circle cx="42.5744" cy="42.5" r="41.0641" fill="white" fill-opacity="0.8" stroke="white" stroke-width="2.52702"/>
<g clip-path="url(#clip0_10_5)">
<path fill-rule="evenodd" clip-rule="evenodd" d="M49.4166 45.5097C49.0401 45.3214 47.1941 44.4142 46.8504 44.2879C46.5068 44.1628 46.2566 44.1009 46.0052 44.4774C45.755 44.8514 45.036 45.698 44.8175 45.9481C44.5976 46.1996 44.379 46.2299 44.0037 46.0429C43.6285 45.8534 42.418 45.4579 40.984 44.1792C39.8683 43.1836 39.114 41.9542 38.8954 41.5777C38.6768 41.2024 38.8714 40.999 39.0596 40.812C39.2289 40.6439 39.4349 40.3735 39.6232 40.1549C39.8114 39.9351 39.8733 39.7784 39.9984 39.527C40.1248 39.2768 40.0616 39.0582 39.9668 38.8699C39.8733 38.6817 39.1228 36.8332 38.8095 36.0814C38.505 35.3498 38.1954 35.4496 37.9654 35.437C37.7456 35.4269 37.4954 35.4244 37.2452 35.4244C36.9951 35.4244 36.5882 35.5179 36.2445 35.8944C35.8996 36.2696 34.9305 37.1781 34.9305 39.0266C34.9305 40.8739 36.2749 42.6592 36.4631 42.9107C36.6514 43.1608 39.1102 46.9539 42.8767 48.58C43.7738 48.9667 44.4725 49.1979 45.0171 49.3697C45.9167 49.6565 46.7355 49.6161 47.3824 49.5188C48.1026 49.4114 49.6036 48.6103 49.917 47.7335C50.2291 46.8566 50.2291 46.1048 50.1356 45.9481C50.0421 45.7915 49.7919 45.698 49.4154 45.5097H49.4166ZM42.5659 54.8635H42.5608C40.3237 54.8639 38.1276 54.2625 36.2028 53.1223L35.748 52.852L31.0199 54.0927L32.2822 49.4834L31.9852 49.0109C30.7345 47.02 30.0727 44.7159 30.0761 42.3648C30.0786 35.4787 35.681 29.8763 42.5709 29.8763C45.9066 29.8763 49.0426 31.1777 51.4003 33.5379C52.5632 34.696 53.485 36.0732 54.1122 37.5899C54.7394 39.1065 55.0596 40.7325 55.0544 42.3737C55.0519 49.2598 49.4495 54.8635 42.5659 54.8635ZM53.1945 31.745C51.8024 30.3437 50.146 29.2326 48.3213 28.4761C46.4966 27.7195 44.5399 27.3327 42.5646 27.3379C34.2836 27.3379 27.5415 34.0787 27.5389 42.3636C27.5351 45.0002 28.2268 47.5912 29.5441 49.8751L27.4126 57.6621L35.3778 55.5723C37.5812 56.7728 40.0503 57.4018 42.5596 57.4019H42.5659C50.8469 57.4019 57.589 50.661 57.5915 42.3749C57.5976 40.4004 57.2122 38.4443 56.4574 36.6197C55.7027 34.7951 54.5937 33.1382 53.1945 31.745Z" fill="#063247"/>
</g>
<defs>
<clipPath id="clip0_10_5">
<rect width="30.3242" height="30.3242" fill="white" transform="translate(27.4124 27.3379)"/>
</clipPath>
</defs>
</svg>
